M48
; DRILL file {KiCad (5.1.10-1-10_14)} date Friday, October 22, 2021 at 03:14:24 PM
; FORMAT={-:-/ absolute / inch / decimal}
; #@! TF.CreationDate,2021-10-22T15:14:24-04:00
; #@! TF.GenerationSoftware,Kicad,Pcbnew,(5.1.10-1-10_14)
FMAT,2
INCH
T1C0.0118
T2C0.0394
T3C0.1260
%
G90
G05
T1
X4.9217Y-3.9236
X5.0114Y-3.7752
X5.7429Y-4.0654
X5.8756Y-3.7118
X5.8996Y-4.0583
X5.9862Y-3.7528
X6.0346Y-3.9961
T2
X5.4711Y-3.7878
X5.4711Y-3.9437
X5.5161Y-3.8657
X5.5612Y-3.7878
X5.5612Y-3.9437
X5.6063Y-3.8657
X5.6514Y-3.7878
X5.6514Y-3.9437
X5.6965Y-3.8657
X5.7415Y-3.7878
X5.7415Y-3.9437
X5.7866Y-3.8657
X5.8317Y-3.7878
X5.8317Y-3.9437
X5.8768Y-3.8657
T3
X5.1594Y-3.8657
X6.1433Y-3.8657
T2
G00X4.65Y-3.8079
M15
G01X4.6106Y-3.8079
M16
G05
G00X4.65Y-4.0244
M15
G01X4.6106Y-4.0244
M16
G05
G00X4.7287Y-3.7134
M15
G01X4.6894Y-3.7134
M16
G05
G00X4.7287Y-3.9535
M15
G01X4.6894Y-3.9535
M16
G05
G00X4.7287Y-4.1701
M15
G01X4.6894Y-4.1701
M16
G05
T0
M30
