G04 #@! TF.GenerationSoftware,KiCad,Pcbnew,(5.1.10-1-10_14)*
G04 #@! TF.CreationDate,2021-10-22T15:14:23-04:00*
G04 #@! TF.ProjectId,VGA2RT5X,56474132-5254-4355-982e-6b696361645f,1*
G04 #@! TF.SameCoordinates,Original*
G04 #@! TF.FileFunction,Soldermask,Top*
G04 #@! TF.FilePolarity,Negative*
%FSLAX46Y46*%
G04 Gerber Fmt 4.6, Leading zero omitted, Abs format (unit mm)*
G04 Created by KiCad (PCBNEW (5.1.10-1-10_14)) date 2021-10-22 15:14:23*
%MOMM*%
%LPD*%
G01*
G04 APERTURE LIST*
%ADD10C,0.152400*%
%ADD11O,3.117600X1.609600*%
%ADD12C,4.167600*%
%ADD13C,1.801600*%
G04 APERTURE END LIST*
D10*
G36*
X151249802Y-96653887D02*
G01*
X151249802Y-96635466D01*
X151250047Y-96630486D01*
X151254857Y-96581655D01*
X151255588Y-96576725D01*
X151265160Y-96528600D01*
X151266372Y-96523763D01*
X151280616Y-96476808D01*
X151282295Y-96472115D01*
X151301072Y-96426782D01*
X151303204Y-96422274D01*
X151326335Y-96379001D01*
X151328897Y-96374727D01*
X151356157Y-96333928D01*
X151359127Y-96329923D01*
X151390255Y-96291994D01*
X151393603Y-96288300D01*
X151428300Y-96253603D01*
X151431994Y-96250255D01*
X151469923Y-96219127D01*
X151473928Y-96216157D01*
X151514727Y-96188897D01*
X151519001Y-96186335D01*
X151562274Y-96163204D01*
X151566782Y-96161072D01*
X151612115Y-96142295D01*
X151616808Y-96140616D01*
X151663763Y-96126372D01*
X151668600Y-96125160D01*
X151716725Y-96115588D01*
X151721655Y-96114857D01*
X151770486Y-96110047D01*
X151775466Y-96109802D01*
X151793887Y-96109802D01*
X151800000Y-96109200D01*
X152300000Y-96109200D01*
X152306113Y-96109802D01*
X152324534Y-96109802D01*
X152329514Y-96110047D01*
X152378345Y-96114857D01*
X152383275Y-96115588D01*
X152431400Y-96125160D01*
X152436237Y-96126372D01*
X152483192Y-96140616D01*
X152487885Y-96142295D01*
X152533218Y-96161072D01*
X152537726Y-96163204D01*
X152580999Y-96186335D01*
X152585273Y-96188897D01*
X152626072Y-96216157D01*
X152630077Y-96219127D01*
X152668006Y-96250255D01*
X152671700Y-96253603D01*
X152706397Y-96288300D01*
X152709745Y-96291994D01*
X152740873Y-96329923D01*
X152743843Y-96333928D01*
X152771103Y-96374727D01*
X152773665Y-96379001D01*
X152796796Y-96422274D01*
X152798928Y-96426782D01*
X152817705Y-96472115D01*
X152819384Y-96476808D01*
X152833628Y-96523763D01*
X152834840Y-96528600D01*
X152844412Y-96576725D01*
X152845143Y-96581655D01*
X152849953Y-96630486D01*
X152850198Y-96635466D01*
X152850198Y-96653887D01*
X152850800Y-96660000D01*
X152850800Y-97160000D01*
X152849824Y-97169911D01*
X152846933Y-97179440D01*
X152842239Y-97188223D01*
X152835921Y-97195921D01*
X152828223Y-97202239D01*
X152819440Y-97206933D01*
X152809911Y-97209824D01*
X152800000Y-97210800D01*
X151300000Y-97210800D01*
X151290089Y-97209824D01*
X151280560Y-97206933D01*
X151271777Y-97202239D01*
X151264079Y-97195921D01*
X151257761Y-97188223D01*
X151253067Y-97179440D01*
X151250176Y-97169911D01*
X151249200Y-97160000D01*
X151249200Y-96660000D01*
X151249802Y-96653887D01*
G37*
G36*
X151250176Y-97450089D02*
G01*
X151253067Y-97440560D01*
X151257761Y-97431777D01*
X151264079Y-97424079D01*
X151271777Y-97417761D01*
X151280560Y-97413067D01*
X151290089Y-97410176D01*
X151300000Y-97409200D01*
X152800000Y-97409200D01*
X152809911Y-97410176D01*
X152819440Y-97413067D01*
X152828223Y-97417761D01*
X152835921Y-97424079D01*
X152842239Y-97431777D01*
X152846933Y-97440560D01*
X152849824Y-97450089D01*
X152850800Y-97460000D01*
X152850800Y-97960000D01*
X152850198Y-97966113D01*
X152850198Y-97984534D01*
X152849953Y-97989514D01*
X152845143Y-98038345D01*
X152844412Y-98043275D01*
X152834840Y-98091400D01*
X152833628Y-98096237D01*
X152819384Y-98143192D01*
X152817705Y-98147885D01*
X152798928Y-98193218D01*
X152796796Y-98197726D01*
X152773665Y-98240999D01*
X152771103Y-98245273D01*
X152743843Y-98286072D01*
X152740873Y-98290077D01*
X152709745Y-98328006D01*
X152706397Y-98331700D01*
X152671700Y-98366397D01*
X152668006Y-98369745D01*
X152630077Y-98400873D01*
X152626072Y-98403843D01*
X152585273Y-98431103D01*
X152580999Y-98433665D01*
X152537726Y-98456796D01*
X152533218Y-98458928D01*
X152487885Y-98477705D01*
X152483192Y-98479384D01*
X152436237Y-98493628D01*
X152431400Y-98494840D01*
X152383275Y-98504412D01*
X152378345Y-98505143D01*
X152329514Y-98509953D01*
X152324534Y-98510198D01*
X152306113Y-98510198D01*
X152300000Y-98510800D01*
X151800000Y-98510800D01*
X151793887Y-98510198D01*
X151775466Y-98510198D01*
X151770486Y-98509953D01*
X151721655Y-98505143D01*
X151716725Y-98504412D01*
X151668600Y-98494840D01*
X151663763Y-98493628D01*
X151616808Y-98479384D01*
X151612115Y-98477705D01*
X151566782Y-98458928D01*
X151562274Y-98456796D01*
X151519001Y-98433665D01*
X151514727Y-98431103D01*
X151473928Y-98403843D01*
X151469923Y-98400873D01*
X151431994Y-98369745D01*
X151428300Y-98366397D01*
X151393603Y-98331700D01*
X151390255Y-98328006D01*
X151359127Y-98290077D01*
X151356157Y-98286072D01*
X151328897Y-98245273D01*
X151326335Y-98240999D01*
X151303204Y-98197726D01*
X151301072Y-98193218D01*
X151282295Y-98147885D01*
X151280616Y-98143192D01*
X151266372Y-98096237D01*
X151265160Y-98091400D01*
X151255588Y-98043275D01*
X151254857Y-98038345D01*
X151250047Y-97989514D01*
X151249802Y-97984534D01*
X151249802Y-97966113D01*
X151249200Y-97960000D01*
X151249200Y-97460000D01*
X151250176Y-97450089D01*
G37*
G36*
G01*
X151595000Y-99414200D02*
X152525000Y-99414200D01*
G75*
G02*
X152575800Y-99465000I0J-50800D01*
G01*
X152575800Y-100255000D01*
G75*
G02*
X152525000Y-100305800I-50800J0D01*
G01*
X151595000Y-100305800D01*
G75*
G02*
X151544200Y-100255000I0J50800D01*
G01*
X151544200Y-99465000D01*
G75*
G02*
X151595000Y-99414200I50800J0D01*
G01*
G37*
G36*
G01*
X151595000Y-101054200D02*
X152525000Y-101054200D01*
G75*
G02*
X152575800Y-101105000I0J-50800D01*
G01*
X152575800Y-101895000D01*
G75*
G02*
X152525000Y-101945800I-50800J0D01*
G01*
X151595000Y-101945800D01*
G75*
G02*
X151544200Y-101895000I0J50800D01*
G01*
X151544200Y-101105000D01*
G75*
G02*
X151595000Y-101054200I50800J0D01*
G01*
G37*
G36*
G01*
X136465800Y-94345000D02*
X136465800Y-95315000D01*
G75*
G02*
X136415000Y-95365800I-50800J0D01*
G01*
X135495000Y-95365800D01*
G75*
G02*
X135444200Y-95315000I0J50800D01*
G01*
X135444200Y-94345000D01*
G75*
G02*
X135495000Y-94294200I50800J0D01*
G01*
X136415000Y-94294200D01*
G75*
G02*
X136465800Y-94345000I0J-50800D01*
G01*
G37*
G36*
G01*
X134915800Y-94345000D02*
X134915800Y-95315000D01*
G75*
G02*
X134865000Y-95365800I-50800J0D01*
G01*
X133945000Y-95365800D01*
G75*
G02*
X133894200Y-95315000I0J50800D01*
G01*
X133894200Y-94345000D01*
G75*
G02*
X133945000Y-94294200I50800J0D01*
G01*
X134865000Y-94294200D01*
G75*
G02*
X134915800Y-94345000I0J-50800D01*
G01*
G37*
G36*
G01*
X135365000Y-97239200D02*
X136335000Y-97239200D01*
G75*
G02*
X136385800Y-97290000I0J-50800D01*
G01*
X136385800Y-98210000D01*
G75*
G02*
X136335000Y-98260800I-50800J0D01*
G01*
X135365000Y-98260800D01*
G75*
G02*
X135314200Y-98210000I0J50800D01*
G01*
X135314200Y-97290000D01*
G75*
G02*
X135365000Y-97239200I50800J0D01*
G01*
G37*
G36*
G01*
X135365000Y-98789200D02*
X136335000Y-98789200D01*
G75*
G02*
X136385800Y-98840000I0J-50800D01*
G01*
X136385800Y-99760000D01*
G75*
G02*
X136335000Y-99810800I-50800J0D01*
G01*
X135365000Y-99810800D01*
G75*
G02*
X135314200Y-99760000I0J50800D01*
G01*
X135314200Y-98840000D01*
G75*
G02*
X135365000Y-98789200I50800J0D01*
G01*
G37*
D11*
X119610000Y-94320000D03*
X117610000Y-96720000D03*
X119610000Y-100420000D03*
X117610000Y-102220000D03*
X119610000Y-105920000D03*
G36*
G01*
X149025800Y-99320000D02*
X149025800Y-101020000D01*
G75*
G02*
X148975000Y-101070800I-50800J0D01*
G01*
X147275000Y-101070800D01*
G75*
G02*
X147224200Y-101020000I0J50800D01*
G01*
X147224200Y-99320000D01*
G75*
G02*
X147275000Y-99269200I50800J0D01*
G01*
X148975000Y-99269200D01*
G75*
G02*
X149025800Y-99320000I0J-50800D01*
G01*
G37*
D12*
X156040000Y-98190000D03*
X131050000Y-98190000D03*
D13*
X145835000Y-100170000D03*
X143545000Y-100170000D03*
X141255000Y-100170000D03*
X138965000Y-100170000D03*
X149270000Y-98190000D03*
X146980000Y-98190000D03*
X144690000Y-98190000D03*
X142400000Y-98190000D03*
X140110000Y-98190000D03*
X148125000Y-96210000D03*
X145835000Y-96210000D03*
X143545000Y-96210000D03*
X141255000Y-96210000D03*
X138965000Y-96210000D03*
G36*
G01*
X148296068Y-104792120D02*
X148296068Y-106842920D01*
G75*
G02*
X147770668Y-107368320I-525400J0D01*
G01*
X146719868Y-107368320D01*
G75*
G02*
X146194468Y-106842920I0J525400D01*
G01*
X146194468Y-104792120D01*
G75*
G02*
X146719868Y-104266720I525400J0D01*
G01*
X147770668Y-104266720D01*
G75*
G02*
X148296068Y-104792120I0J-525400D01*
G01*
G37*
G36*
G01*
X156996068Y-104792120D02*
X156996068Y-106842920D01*
G75*
G02*
X156470668Y-107368320I-525400J0D01*
G01*
X155419868Y-107368320D01*
G75*
G02*
X154894468Y-106842920I0J525400D01*
G01*
X154894468Y-104792120D01*
G75*
G02*
X155419868Y-104266720I525400J0D01*
G01*
X156470668Y-104266720D01*
G75*
G02*
X156996068Y-104792120I0J-525400D01*
G01*
G37*
G36*
G01*
X137076068Y-104792120D02*
X137076068Y-106842920D01*
G75*
G02*
X136550668Y-107368320I-525400J0D01*
G01*
X135499868Y-107368320D01*
G75*
G02*
X134974468Y-106842920I0J525400D01*
G01*
X134974468Y-104792120D01*
G75*
G02*
X135499868Y-104266720I525400J0D01*
G01*
X136550668Y-104266720D01*
G75*
G02*
X137076068Y-104792120I0J-525400D01*
G01*
G37*
G36*
G01*
X142686068Y-104792120D02*
X142686068Y-106842920D01*
G75*
G02*
X142160668Y-107368320I-525400J0D01*
G01*
X141109868Y-107368320D01*
G75*
G02*
X140584468Y-106842920I0J525400D01*
G01*
X140584468Y-104792120D01*
G75*
G02*
X141109868Y-104266720I525400J0D01*
G01*
X142160668Y-104266720D01*
G75*
G02*
X142686068Y-104792120I0J-525400D01*
G01*
G37*
G36*
G01*
X153436068Y-104792120D02*
X153436068Y-106842920D01*
G75*
G02*
X152910668Y-107368320I-525400J0D01*
G01*
X151859868Y-107368320D01*
G75*
G02*
X151334468Y-106842920I0J525400D01*
G01*
X151334468Y-104792120D01*
G75*
G02*
X151859868Y-104266720I525400J0D01*
G01*
X152910668Y-104266720D01*
G75*
G02*
X153436068Y-104792120I0J-525400D01*
G01*
G37*
G36*
G01*
X124316068Y-104792120D02*
X124316068Y-106842920D01*
G75*
G02*
X123790668Y-107368320I-525400J0D01*
G01*
X122739868Y-107368320D01*
G75*
G02*
X122214468Y-106842920I0J525400D01*
G01*
X122214468Y-104792120D01*
G75*
G02*
X122739868Y-104266720I525400J0D01*
G01*
X123790668Y-104266720D01*
G75*
G02*
X124316068Y-104792120I0J-525400D01*
G01*
G37*
G36*
G01*
X117826068Y-103192120D02*
X117826068Y-105242920D01*
G75*
G02*
X117300668Y-105768320I-525400J0D01*
G01*
X116249868Y-105768320D01*
G75*
G02*
X115724468Y-105242920I0J525400D01*
G01*
X115724468Y-103192120D01*
G75*
G02*
X116249868Y-102666720I525400J0D01*
G01*
X117300668Y-102666720D01*
G75*
G02*
X117826068Y-103192120I0J-525400D01*
G01*
G37*
G36*
G01*
X122766068Y-94442120D02*
X122766068Y-96492920D01*
G75*
G02*
X122240668Y-97018320I-525400J0D01*
G01*
X121189868Y-97018320D01*
G75*
G02*
X120664468Y-96492920I0J525400D01*
G01*
X120664468Y-94442120D01*
G75*
G02*
X121189868Y-93916720I525400J0D01*
G01*
X122240668Y-93916720D01*
G75*
G02*
X122766068Y-94442120I0J-525400D01*
G01*
G37*
M02*
