G04 #@! TF.GenerationSoftware,KiCad,Pcbnew,(5.1.10-1-10_14)*
G04 #@! TF.CreationDate,2021-10-22T15:14:23-04:00*
G04 #@! TF.ProjectId,VGA2RT5X,56474132-5254-4355-982e-6b696361645f,1*
G04 #@! TF.SameCoordinates,Original*
G04 #@! TF.FileFunction,Legend,Top*
G04 #@! TF.FilePolarity,Positive*
%FSLAX46Y46*%
G04 Gerber Fmt 4.6, Leading zero omitted, Abs format (unit mm)*
G04 Created by KiCad (PCBNEW (5.1.10-1-10_14)) date 2021-10-22 15:14:23*
%MOMM*%
%LPD*%
G01*
G04 APERTURE LIST*
%ADD10C,0.125000*%
%ADD11C,0.200000*%
%ADD12C,0.127000*%
%ADD13C,0.120000*%
%ADD14C,0.152400*%
%ADD15O,3.117600X1.609600*%
%ADD16C,4.167600*%
%ADD17C,1.801600*%
G04 APERTURE END LIST*
D10*
X147982857Y-94041071D02*
X147959047Y-94064880D01*
X147887619Y-94088690D01*
X147840000Y-94088690D01*
X147768571Y-94064880D01*
X147720952Y-94017261D01*
X147697142Y-93969642D01*
X147673333Y-93874404D01*
X147673333Y-93802976D01*
X147697142Y-93707738D01*
X147720952Y-93660119D01*
X147768571Y-93612500D01*
X147840000Y-93588690D01*
X147887619Y-93588690D01*
X147959047Y-93612500D01*
X147982857Y-93636309D01*
X148268571Y-94088690D02*
X148220952Y-94064880D01*
X148197142Y-94017261D01*
X148197142Y-93588690D01*
X148530476Y-94088690D02*
X148482857Y-94064880D01*
X148459047Y-94041071D01*
X148435238Y-93993452D01*
X148435238Y-93850595D01*
X148459047Y-93802976D01*
X148482857Y-93779166D01*
X148530476Y-93755357D01*
X148601904Y-93755357D01*
X148649523Y-93779166D01*
X148673333Y-93802976D01*
X148697142Y-93850595D01*
X148697142Y-93993452D01*
X148673333Y-94041071D01*
X148649523Y-94064880D01*
X148601904Y-94088690D01*
X148530476Y-94088690D01*
X148887619Y-94064880D02*
X148935238Y-94088690D01*
X149030476Y-94088690D01*
X149078095Y-94064880D01*
X149101904Y-94017261D01*
X149101904Y-93993452D01*
X149078095Y-93945833D01*
X149030476Y-93922023D01*
X148959047Y-93922023D01*
X148911428Y-93898214D01*
X148887619Y-93850595D01*
X148887619Y-93826785D01*
X148911428Y-93779166D01*
X148959047Y-93755357D01*
X149030476Y-93755357D01*
X149078095Y-93779166D01*
X149506666Y-94064880D02*
X149459047Y-94088690D01*
X149363809Y-94088690D01*
X149316190Y-94064880D01*
X149292380Y-94017261D01*
X149292380Y-93826785D01*
X149316190Y-93779166D01*
X149363809Y-93755357D01*
X149459047Y-93755357D01*
X149506666Y-93779166D01*
X149530476Y-93826785D01*
X149530476Y-93874404D01*
X149292380Y-93922023D01*
X150125714Y-93755357D02*
X150125714Y-94183928D01*
X150101904Y-94231547D01*
X150054285Y-94255357D01*
X150030476Y-94255357D01*
X150125714Y-93588690D02*
X150101904Y-93612500D01*
X150125714Y-93636309D01*
X150149523Y-93612500D01*
X150125714Y-93588690D01*
X150125714Y-93636309D01*
X150578095Y-93755357D02*
X150578095Y-94088690D01*
X150363809Y-93755357D02*
X150363809Y-94017261D01*
X150387619Y-94064880D01*
X150435238Y-94088690D01*
X150506666Y-94088690D01*
X150554285Y-94064880D01*
X150578095Y-94041071D01*
X150816190Y-94088690D02*
X150816190Y-93755357D01*
X150816190Y-93802976D02*
X150840000Y-93779166D01*
X150887619Y-93755357D01*
X150959047Y-93755357D01*
X151006666Y-93779166D01*
X151030476Y-93826785D01*
X151030476Y-94088690D01*
X151030476Y-93826785D02*
X151054285Y-93779166D01*
X151101904Y-93755357D01*
X151173333Y-93755357D01*
X151220952Y-93779166D01*
X151244761Y-93826785D01*
X151244761Y-94088690D01*
X151482857Y-93755357D02*
X151482857Y-94255357D01*
X151482857Y-93779166D02*
X151530476Y-93755357D01*
X151625714Y-93755357D01*
X151673333Y-93779166D01*
X151697142Y-93802976D01*
X151720952Y-93850595D01*
X151720952Y-93993452D01*
X151697142Y-94041071D01*
X151673333Y-94064880D01*
X151625714Y-94088690D01*
X151530476Y-94088690D01*
X151482857Y-94064880D01*
X152125714Y-94064880D02*
X152078095Y-94088690D01*
X151982857Y-94088690D01*
X151935238Y-94064880D01*
X151911428Y-94017261D01*
X151911428Y-93826785D01*
X151935238Y-93779166D01*
X151982857Y-93755357D01*
X152078095Y-93755357D01*
X152125714Y-93779166D01*
X152149523Y-93826785D01*
X152149523Y-93874404D01*
X151911428Y-93922023D01*
X152363809Y-94088690D02*
X152363809Y-93755357D01*
X152363809Y-93850595D02*
X152387619Y-93802976D01*
X152411428Y-93779166D01*
X152459047Y-93755357D01*
X152506666Y-93755357D01*
X152982857Y-93755357D02*
X153173333Y-93755357D01*
X153054285Y-93588690D02*
X153054285Y-94017261D01*
X153078095Y-94064880D01*
X153125714Y-94088690D01*
X153173333Y-94088690D01*
X153411428Y-94088690D02*
X153363809Y-94064880D01*
X153340000Y-94041071D01*
X153316190Y-93993452D01*
X153316190Y-93850595D01*
X153340000Y-93802976D01*
X153363809Y-93779166D01*
X153411428Y-93755357D01*
X153482857Y-93755357D01*
X153530476Y-93779166D01*
X153554285Y-93802976D01*
X153578095Y-93850595D01*
X153578095Y-93993452D01*
X153554285Y-94041071D01*
X153530476Y-94064880D01*
X153482857Y-94088690D01*
X153411428Y-94088690D01*
X154173333Y-94088690D02*
X154173333Y-93588690D01*
X154173333Y-93779166D02*
X154220952Y-93755357D01*
X154316190Y-93755357D01*
X154363809Y-93779166D01*
X154387619Y-93802976D01*
X154411428Y-93850595D01*
X154411428Y-93993452D01*
X154387619Y-94041071D01*
X154363809Y-94064880D01*
X154316190Y-94088690D01*
X154220952Y-94088690D01*
X154173333Y-94064880D01*
X154578095Y-93755357D02*
X154697142Y-94088690D01*
X154816190Y-93755357D02*
X154697142Y-94088690D01*
X154649523Y-94207738D01*
X154625714Y-94231547D01*
X154578095Y-94255357D01*
X155006666Y-93755357D02*
X155006666Y-94255357D01*
X155006666Y-93779166D02*
X155054285Y-93755357D01*
X155149523Y-93755357D01*
X155197142Y-93779166D01*
X155220952Y-93802976D01*
X155244761Y-93850595D01*
X155244761Y-93993452D01*
X155220952Y-94041071D01*
X155197142Y-94064880D01*
X155149523Y-94088690D01*
X155054285Y-94088690D01*
X155006666Y-94064880D01*
X155673333Y-94088690D02*
X155673333Y-93826785D01*
X155649523Y-93779166D01*
X155601904Y-93755357D01*
X155506666Y-93755357D01*
X155459047Y-93779166D01*
X155673333Y-94064880D02*
X155625714Y-94088690D01*
X155506666Y-94088690D01*
X155459047Y-94064880D01*
X155435238Y-94017261D01*
X155435238Y-93969642D01*
X155459047Y-93922023D01*
X155506666Y-93898214D01*
X155625714Y-93898214D01*
X155673333Y-93874404D01*
X155887619Y-94064880D02*
X155935238Y-94088690D01*
X156030476Y-94088690D01*
X156078095Y-94064880D01*
X156101904Y-94017261D01*
X156101904Y-93993452D01*
X156078095Y-93945833D01*
X156030476Y-93922023D01*
X155959047Y-93922023D01*
X155911428Y-93898214D01*
X155887619Y-93850595D01*
X155887619Y-93826785D01*
X155911428Y-93779166D01*
X155959047Y-93755357D01*
X156030476Y-93755357D01*
X156078095Y-93779166D01*
X156292380Y-94064880D02*
X156340000Y-94088690D01*
X156435238Y-94088690D01*
X156482857Y-94064880D01*
X156506666Y-94017261D01*
X156506666Y-93993452D01*
X156482857Y-93945833D01*
X156435238Y-93922023D01*
X156363809Y-93922023D01*
X156316190Y-93898214D01*
X156292380Y-93850595D01*
X156292380Y-93826785D01*
X156316190Y-93779166D01*
X156363809Y-93755357D01*
X156435238Y-93755357D01*
X156482857Y-93779166D01*
X149042380Y-94939880D02*
X149090000Y-94963690D01*
X149185238Y-94963690D01*
X149232857Y-94939880D01*
X149256666Y-94892261D01*
X149256666Y-94868452D01*
X149232857Y-94820833D01*
X149185238Y-94797023D01*
X149113809Y-94797023D01*
X149066190Y-94773214D01*
X149042380Y-94725595D01*
X149042380Y-94701785D01*
X149066190Y-94654166D01*
X149113809Y-94630357D01*
X149185238Y-94630357D01*
X149232857Y-94654166D01*
X149423333Y-94630357D02*
X149542380Y-94963690D01*
X149661428Y-94630357D02*
X149542380Y-94963690D01*
X149494761Y-95082738D01*
X149470952Y-95106547D01*
X149423333Y-95130357D01*
X149851904Y-94630357D02*
X149851904Y-94963690D01*
X149851904Y-94677976D02*
X149875714Y-94654166D01*
X149923333Y-94630357D01*
X149994761Y-94630357D01*
X150042380Y-94654166D01*
X150066190Y-94701785D01*
X150066190Y-94963690D01*
X150518571Y-94939880D02*
X150470952Y-94963690D01*
X150375714Y-94963690D01*
X150328095Y-94939880D01*
X150304285Y-94916071D01*
X150280476Y-94868452D01*
X150280476Y-94725595D01*
X150304285Y-94677976D01*
X150328095Y-94654166D01*
X150375714Y-94630357D01*
X150470952Y-94630357D01*
X150518571Y-94654166D01*
X151328095Y-94963690D02*
X151328095Y-94701785D01*
X151304285Y-94654166D01*
X151256666Y-94630357D01*
X151161428Y-94630357D01*
X151113809Y-94654166D01*
X151328095Y-94939880D02*
X151280476Y-94963690D01*
X151161428Y-94963690D01*
X151113809Y-94939880D01*
X151090000Y-94892261D01*
X151090000Y-94844642D01*
X151113809Y-94797023D01*
X151161428Y-94773214D01*
X151280476Y-94773214D01*
X151328095Y-94749404D01*
X151494761Y-94630357D02*
X151685238Y-94630357D01*
X151566190Y-94463690D02*
X151566190Y-94892261D01*
X151590000Y-94939880D01*
X151637619Y-94963690D01*
X151685238Y-94963690D01*
X151780476Y-94630357D02*
X151970952Y-94630357D01*
X151851904Y-94463690D02*
X151851904Y-94892261D01*
X151875714Y-94939880D01*
X151923333Y-94963690D01*
X151970952Y-94963690D01*
X152328095Y-94939880D02*
X152280476Y-94963690D01*
X152185238Y-94963690D01*
X152137619Y-94939880D01*
X152113809Y-94892261D01*
X152113809Y-94701785D01*
X152137619Y-94654166D01*
X152185238Y-94630357D01*
X152280476Y-94630357D01*
X152328095Y-94654166D01*
X152351904Y-94701785D01*
X152351904Y-94749404D01*
X152113809Y-94797023D01*
X152566190Y-94630357D02*
X152566190Y-94963690D01*
X152566190Y-94677976D02*
X152590000Y-94654166D01*
X152637619Y-94630357D01*
X152709047Y-94630357D01*
X152756666Y-94654166D01*
X152780476Y-94701785D01*
X152780476Y-94963690D01*
X153232857Y-94630357D02*
X153232857Y-94963690D01*
X153018571Y-94630357D02*
X153018571Y-94892261D01*
X153042380Y-94939880D01*
X153090000Y-94963690D01*
X153161428Y-94963690D01*
X153209047Y-94939880D01*
X153232857Y-94916071D01*
X153685238Y-94963690D02*
X153685238Y-94701785D01*
X153661428Y-94654166D01*
X153613809Y-94630357D01*
X153518571Y-94630357D01*
X153470952Y-94654166D01*
X153685238Y-94939880D02*
X153637619Y-94963690D01*
X153518571Y-94963690D01*
X153470952Y-94939880D01*
X153447142Y-94892261D01*
X153447142Y-94844642D01*
X153470952Y-94797023D01*
X153518571Y-94773214D01*
X153637619Y-94773214D01*
X153685238Y-94749404D01*
X153851904Y-94630357D02*
X154042380Y-94630357D01*
X153923333Y-94463690D02*
X153923333Y-94892261D01*
X153947142Y-94939880D01*
X153994761Y-94963690D01*
X154042380Y-94963690D01*
X154209047Y-94963690D02*
X154209047Y-94630357D01*
X154209047Y-94463690D02*
X154185238Y-94487500D01*
X154209047Y-94511309D01*
X154232857Y-94487500D01*
X154209047Y-94463690D01*
X154209047Y-94511309D01*
X154518571Y-94963690D02*
X154470952Y-94939880D01*
X154447142Y-94916071D01*
X154423333Y-94868452D01*
X154423333Y-94725595D01*
X154447142Y-94677976D01*
X154470952Y-94654166D01*
X154518571Y-94630357D01*
X154590000Y-94630357D01*
X154637619Y-94654166D01*
X154661428Y-94677976D01*
X154685238Y-94725595D01*
X154685238Y-94868452D01*
X154661428Y-94916071D01*
X154637619Y-94939880D01*
X154590000Y-94963690D01*
X154518571Y-94963690D01*
X154899523Y-94630357D02*
X154899523Y-94963690D01*
X154899523Y-94677976D02*
X154923333Y-94654166D01*
X154970952Y-94630357D01*
X155042380Y-94630357D01*
X155090000Y-94654166D01*
X155113809Y-94701785D01*
X155113809Y-94963690D01*
X150792857Y-100350952D02*
X151126190Y-100350952D01*
X150602380Y-100470000D02*
X150959523Y-100589047D01*
X150959523Y-100279523D01*
X150626190Y-100136666D02*
X150626190Y-99803333D01*
X151126190Y-100017619D01*
X150626190Y-99517619D02*
X150626190Y-99470000D01*
X150650000Y-99422380D01*
X150673809Y-99398571D01*
X150721428Y-99374761D01*
X150816666Y-99350952D01*
X150935714Y-99350952D01*
X151030952Y-99374761D01*
X151078571Y-99398571D01*
X151102380Y-99422380D01*
X151126190Y-99470000D01*
X151126190Y-99517619D01*
X151102380Y-99565238D01*
X151078571Y-99589047D01*
X151030952Y-99612857D01*
X150935714Y-99636666D01*
X150816666Y-99636666D01*
X150721428Y-99612857D01*
X150673809Y-99589047D01*
X150650000Y-99565238D01*
X150626190Y-99517619D01*
D11*
X122474761Y-100622380D02*
X122474761Y-101336666D01*
X122427142Y-101479523D01*
X122331904Y-101574761D01*
X122189047Y-101622380D01*
X122093809Y-101622380D01*
X123331904Y-101574761D02*
X123236666Y-101622380D01*
X123046190Y-101622380D01*
X122950952Y-101574761D01*
X122903333Y-101479523D01*
X122903333Y-101098571D01*
X122950952Y-101003333D01*
X123046190Y-100955714D01*
X123236666Y-100955714D01*
X123331904Y-101003333D01*
X123379523Y-101098571D01*
X123379523Y-101193809D01*
X122903333Y-101289047D01*
X123665238Y-100955714D02*
X124046190Y-100955714D01*
X123808095Y-101622380D02*
X123808095Y-100765238D01*
X123855714Y-100670000D01*
X123950952Y-100622380D01*
X124046190Y-100622380D01*
X124236666Y-100955714D02*
X124617619Y-100955714D01*
X124379523Y-101622380D02*
X124379523Y-100765238D01*
X124427142Y-100670000D01*
X124522380Y-100622380D01*
X124617619Y-100622380D01*
X126284285Y-101527142D02*
X126236666Y-101574761D01*
X126093809Y-101622380D01*
X125998571Y-101622380D01*
X125855714Y-101574761D01*
X125760476Y-101479523D01*
X125712857Y-101384285D01*
X125665238Y-101193809D01*
X125665238Y-101050952D01*
X125712857Y-100860476D01*
X125760476Y-100765238D01*
X125855714Y-100670000D01*
X125998571Y-100622380D01*
X126093809Y-100622380D01*
X126236666Y-100670000D01*
X126284285Y-100717619D01*
X126712857Y-101622380D02*
X126712857Y-100622380D01*
X127141428Y-101622380D02*
X127141428Y-101098571D01*
X127093809Y-101003333D01*
X126998571Y-100955714D01*
X126855714Y-100955714D01*
X126760476Y-101003333D01*
X126712857Y-101050952D01*
X127998571Y-101574761D02*
X127903333Y-101622380D01*
X127712857Y-101622380D01*
X127617619Y-101574761D01*
X127570000Y-101479523D01*
X127570000Y-101098571D01*
X127617619Y-101003333D01*
X127712857Y-100955714D01*
X127903333Y-100955714D01*
X127998571Y-101003333D01*
X128046190Y-101098571D01*
X128046190Y-101193809D01*
X127570000Y-101289047D01*
X128474761Y-100955714D02*
X128474761Y-101622380D01*
X128474761Y-101050952D02*
X128522380Y-101003333D01*
X128617619Y-100955714D01*
X128760476Y-100955714D01*
X128855714Y-101003333D01*
X128903333Y-101098571D01*
X128903333Y-101622380D01*
X129427142Y-101574761D02*
X129427142Y-101622380D01*
X129379523Y-101717619D01*
X129331904Y-101765238D01*
X130570000Y-100717619D02*
X130617619Y-100670000D01*
X130712857Y-100622380D01*
X130950952Y-100622380D01*
X131046190Y-100670000D01*
X131093809Y-100717619D01*
X131141428Y-100812857D01*
X131141428Y-100908095D01*
X131093809Y-101050952D01*
X130522380Y-101622380D01*
X131141428Y-101622380D01*
X131760476Y-100622380D02*
X131855714Y-100622380D01*
X131950952Y-100670000D01*
X131998571Y-100717619D01*
X132046190Y-100812857D01*
X132093809Y-101003333D01*
X132093809Y-101241428D01*
X132046190Y-101431904D01*
X131998571Y-101527142D01*
X131950952Y-101574761D01*
X131855714Y-101622380D01*
X131760476Y-101622380D01*
X131665238Y-101574761D01*
X131617619Y-101527142D01*
X131570000Y-101431904D01*
X131522380Y-101241428D01*
X131522380Y-101003333D01*
X131570000Y-100812857D01*
X131617619Y-100717619D01*
X131665238Y-100670000D01*
X131760476Y-100622380D01*
X132474761Y-100717619D02*
X132522380Y-100670000D01*
X132617619Y-100622380D01*
X132855714Y-100622380D01*
X132950952Y-100670000D01*
X132998571Y-100717619D01*
X133046190Y-100812857D01*
X133046190Y-100908095D01*
X132998571Y-101050952D01*
X132427142Y-101622380D01*
X133046190Y-101622380D01*
X133998571Y-101622380D02*
X133427142Y-101622380D01*
X133712857Y-101622380D02*
X133712857Y-100622380D01*
X133617619Y-100765238D01*
X133522380Y-100860476D01*
X133427142Y-100908095D01*
X138752857Y-101818571D02*
X139252857Y-103318571D01*
X139752857Y-101818571D01*
X141038571Y-101890000D02*
X140895714Y-101818571D01*
X140681428Y-101818571D01*
X140467142Y-101890000D01*
X140324285Y-102032857D01*
X140252857Y-102175714D01*
X140181428Y-102461428D01*
X140181428Y-102675714D01*
X140252857Y-102961428D01*
X140324285Y-103104285D01*
X140467142Y-103247142D01*
X140681428Y-103318571D01*
X140824285Y-103318571D01*
X141038571Y-103247142D01*
X141110000Y-103175714D01*
X141110000Y-102675714D01*
X140824285Y-102675714D01*
X141681428Y-102890000D02*
X142395714Y-102890000D01*
X141538571Y-103318571D02*
X142038571Y-101818571D01*
X142538571Y-103318571D01*
X142967142Y-101961428D02*
X143038571Y-101890000D01*
X143181428Y-101818571D01*
X143538571Y-101818571D01*
X143681428Y-101890000D01*
X143752857Y-101961428D01*
X143824285Y-102104285D01*
X143824285Y-102247142D01*
X143752857Y-102461428D01*
X142895714Y-103318571D01*
X143824285Y-103318571D01*
X145324285Y-103318571D02*
X144824285Y-102604285D01*
X144467142Y-103318571D02*
X144467142Y-101818571D01*
X145038571Y-101818571D01*
X145181428Y-101890000D01*
X145252857Y-101961428D01*
X145324285Y-102104285D01*
X145324285Y-102318571D01*
X145252857Y-102461428D01*
X145181428Y-102532857D01*
X145038571Y-102604285D01*
X144467142Y-102604285D01*
X145752857Y-101818571D02*
X146610000Y-101818571D01*
X146181428Y-103318571D02*
X146181428Y-101818571D01*
X147824285Y-101818571D02*
X147110000Y-101818571D01*
X147038571Y-102532857D01*
X147110000Y-102461428D01*
X147252857Y-102390000D01*
X147610000Y-102390000D01*
X147752857Y-102461428D01*
X147824285Y-102532857D01*
X147895714Y-102675714D01*
X147895714Y-103032857D01*
X147824285Y-103175714D01*
X147752857Y-103247142D01*
X147610000Y-103318571D01*
X147252857Y-103318571D01*
X147110000Y-103247142D01*
X147038571Y-103175714D01*
X148395714Y-101818571D02*
X149395714Y-103318571D01*
X149395714Y-101818571D02*
X148395714Y-103318571D01*
D10*
X151209285Y-103713571D02*
X151316428Y-103749285D01*
X151495000Y-103749285D01*
X151566428Y-103713571D01*
X151602142Y-103677857D01*
X151637857Y-103606428D01*
X151637857Y-103535000D01*
X151602142Y-103463571D01*
X151566428Y-103427857D01*
X151495000Y-103392142D01*
X151352142Y-103356428D01*
X151280714Y-103320714D01*
X151245000Y-103285000D01*
X151209285Y-103213571D01*
X151209285Y-103142142D01*
X151245000Y-103070714D01*
X151280714Y-103035000D01*
X151352142Y-102999285D01*
X151530714Y-102999285D01*
X151637857Y-103035000D01*
X151887857Y-103249285D02*
X152066428Y-103749285D01*
X152245000Y-103249285D02*
X152066428Y-103749285D01*
X151995000Y-103927857D01*
X151959285Y-103963571D01*
X151887857Y-103999285D01*
X152530714Y-103249285D02*
X152530714Y-103749285D01*
X152530714Y-103320714D02*
X152566428Y-103285000D01*
X152637857Y-103249285D01*
X152745000Y-103249285D01*
X152816428Y-103285000D01*
X152852142Y-103356428D01*
X152852142Y-103749285D01*
X153530714Y-103713571D02*
X153459285Y-103749285D01*
X153316428Y-103749285D01*
X153245000Y-103713571D01*
X153209285Y-103677857D01*
X153173571Y-103606428D01*
X153173571Y-103392142D01*
X153209285Y-103320714D01*
X153245000Y-103285000D01*
X153316428Y-103249285D01*
X153459285Y-103249285D01*
X153530714Y-103285000D01*
X155378571Y-103035000D02*
X155307142Y-102999285D01*
X155200000Y-102999285D01*
X155092857Y-103035000D01*
X155021428Y-103106428D01*
X154985714Y-103177857D01*
X154950000Y-103320714D01*
X154950000Y-103427857D01*
X154985714Y-103570714D01*
X155021428Y-103642142D01*
X155092857Y-103713571D01*
X155200000Y-103749285D01*
X155271428Y-103749285D01*
X155378571Y-103713571D01*
X155414285Y-103677857D01*
X155414285Y-103427857D01*
X155271428Y-103427857D01*
X155735714Y-103749285D02*
X155735714Y-102999285D01*
X156164285Y-103749285D01*
X156164285Y-102999285D01*
X156521428Y-103749285D02*
X156521428Y-102999285D01*
X156700000Y-102999285D01*
X156807142Y-103035000D01*
X156878571Y-103106428D01*
X156914285Y-103177857D01*
X156950000Y-103320714D01*
X156950000Y-103427857D01*
X156914285Y-103570714D01*
X156878571Y-103642142D01*
X156807142Y-103713571D01*
X156700000Y-103749285D01*
X156521428Y-103749285D01*
D12*
X149242142Y-106239285D02*
X148992142Y-105882142D01*
X148813571Y-106239285D02*
X148813571Y-105489285D01*
X149099285Y-105489285D01*
X149170714Y-105525000D01*
X149206428Y-105560714D01*
X149242142Y-105632142D01*
X149242142Y-105739285D01*
X149206428Y-105810714D01*
X149170714Y-105846428D01*
X149099285Y-105882142D01*
X148813571Y-105882142D01*
D10*
X143566428Y-105525500D02*
X143495000Y-105489785D01*
X143387857Y-105489785D01*
X143280714Y-105525500D01*
X143209285Y-105596928D01*
X143173571Y-105668357D01*
X143137857Y-105811214D01*
X143137857Y-105918357D01*
X143173571Y-106061214D01*
X143209285Y-106132642D01*
X143280714Y-106204071D01*
X143387857Y-106239785D01*
X143459285Y-106239785D01*
X143566428Y-106204071D01*
X143602142Y-106168357D01*
X143602142Y-105918357D01*
X143459285Y-105918357D01*
D12*
X137783571Y-105846428D02*
X137890714Y-105882142D01*
X137926428Y-105917857D01*
X137962142Y-105989285D01*
X137962142Y-106096428D01*
X137926428Y-106167857D01*
X137890714Y-106203571D01*
X137819285Y-106239285D01*
X137533571Y-106239285D01*
X137533571Y-105489285D01*
X137783571Y-105489285D01*
X137855000Y-105525000D01*
X137890714Y-105560714D01*
X137926428Y-105632142D01*
X137926428Y-105703571D01*
X137890714Y-105775000D01*
X137855000Y-105810714D01*
X137783571Y-105846428D01*
X137533571Y-105846428D01*
D10*
X134926190Y-98495714D02*
X134926190Y-98781428D01*
X134926190Y-98638571D02*
X134426190Y-98638571D01*
X134497619Y-98686190D01*
X134545238Y-98733809D01*
X134569047Y-98781428D01*
X134426190Y-98186190D02*
X134426190Y-98138571D01*
X134450000Y-98090952D01*
X134473809Y-98067142D01*
X134521428Y-98043333D01*
X134616666Y-98019523D01*
X134735714Y-98019523D01*
X134830952Y-98043333D01*
X134878571Y-98067142D01*
X134902380Y-98090952D01*
X134926190Y-98138571D01*
X134926190Y-98186190D01*
X134902380Y-98233809D01*
X134878571Y-98257619D01*
X134830952Y-98281428D01*
X134735714Y-98305238D01*
X134616666Y-98305238D01*
X134521428Y-98281428D01*
X134473809Y-98257619D01*
X134450000Y-98233809D01*
X134426190Y-98186190D01*
X134592857Y-97590952D02*
X134926190Y-97590952D01*
X134592857Y-97805238D02*
X134854761Y-97805238D01*
X134902380Y-97781428D01*
X134926190Y-97733809D01*
X134926190Y-97662380D01*
X134902380Y-97614761D01*
X134878571Y-97590952D01*
X134664285Y-97186190D02*
X134664285Y-97352857D01*
X134926190Y-97352857D02*
X134426190Y-97352857D01*
X134426190Y-97114761D01*
X135244285Y-96286190D02*
X134958571Y-96286190D01*
X135101428Y-96286190D02*
X135101428Y-95786190D01*
X135053809Y-95857619D01*
X135006190Y-95905238D01*
X134958571Y-95929047D01*
X135553809Y-95786190D02*
X135601428Y-95786190D01*
X135649047Y-95810000D01*
X135672857Y-95833809D01*
X135696666Y-95881428D01*
X135720476Y-95976666D01*
X135720476Y-96095714D01*
X135696666Y-96190952D01*
X135672857Y-96238571D01*
X135649047Y-96262380D01*
X135601428Y-96286190D01*
X135553809Y-96286190D01*
X135506190Y-96262380D01*
X135482380Y-96238571D01*
X135458571Y-96190952D01*
X135434761Y-96095714D01*
X135434761Y-95976666D01*
X135458571Y-95881428D01*
X135482380Y-95833809D01*
X135506190Y-95810000D01*
X135553809Y-95786190D01*
X136149047Y-95952857D02*
X136149047Y-96286190D01*
X135934761Y-95952857D02*
X135934761Y-96214761D01*
X135958571Y-96262380D01*
X136006190Y-96286190D01*
X136077619Y-96286190D01*
X136125238Y-96262380D01*
X136149047Y-96238571D01*
X136553809Y-96024285D02*
X136387142Y-96024285D01*
X136387142Y-96286190D02*
X136387142Y-95786190D01*
X136625238Y-95786190D01*
X124596488Y-105435833D02*
X124834583Y-105435833D01*
X124548869Y-105578690D02*
X124715535Y-105078690D01*
X124882202Y-105578690D01*
X125263154Y-105245357D02*
X125263154Y-105578690D01*
X125048869Y-105245357D02*
X125048869Y-105507261D01*
X125072678Y-105554880D01*
X125120297Y-105578690D01*
X125191726Y-105578690D01*
X125239345Y-105554880D01*
X125263154Y-105531071D01*
X125715535Y-105578690D02*
X125715535Y-105078690D01*
X125715535Y-105554880D02*
X125667916Y-105578690D01*
X125572678Y-105578690D01*
X125525059Y-105554880D01*
X125501250Y-105531071D01*
X125477440Y-105483452D01*
X125477440Y-105340595D01*
X125501250Y-105292976D01*
X125525059Y-105269166D01*
X125572678Y-105245357D01*
X125667916Y-105245357D01*
X125715535Y-105269166D01*
X125953630Y-105578690D02*
X125953630Y-105245357D01*
X125953630Y-105078690D02*
X125929821Y-105102500D01*
X125953630Y-105126309D01*
X125977440Y-105102500D01*
X125953630Y-105078690D01*
X125953630Y-105126309D01*
X126263154Y-105578690D02*
X126215535Y-105554880D01*
X126191726Y-105531071D01*
X126167916Y-105483452D01*
X126167916Y-105340595D01*
X126191726Y-105292976D01*
X126215535Y-105269166D01*
X126263154Y-105245357D01*
X126334583Y-105245357D01*
X126382202Y-105269166D01*
X126406011Y-105292976D01*
X126429821Y-105340595D01*
X126429821Y-105483452D01*
X126406011Y-105531071D01*
X126382202Y-105554880D01*
X126334583Y-105578690D01*
X126263154Y-105578690D01*
X124858392Y-106453690D02*
X124620297Y-106453690D01*
X124620297Y-105953690D01*
X125215535Y-106429880D02*
X125167916Y-106453690D01*
X125072678Y-106453690D01*
X125025059Y-106429880D01*
X125001250Y-106382261D01*
X125001250Y-106191785D01*
X125025059Y-106144166D01*
X125072678Y-106120357D01*
X125167916Y-106120357D01*
X125215535Y-106144166D01*
X125239345Y-106191785D01*
X125239345Y-106239404D01*
X125001250Y-106287023D01*
X125382202Y-106120357D02*
X125572678Y-106120357D01*
X125453630Y-106453690D02*
X125453630Y-106025119D01*
X125477440Y-105977500D01*
X125525059Y-105953690D01*
X125572678Y-105953690D01*
X125667916Y-106120357D02*
X125858392Y-106120357D01*
X125739345Y-105953690D02*
X125739345Y-106382261D01*
X125763154Y-106429880D01*
X125810773Y-106453690D01*
X125858392Y-106453690D01*
X118116488Y-103635833D02*
X118354583Y-103635833D01*
X118068869Y-103778690D02*
X118235535Y-103278690D01*
X118402202Y-103778690D01*
X118783154Y-103445357D02*
X118783154Y-103778690D01*
X118568869Y-103445357D02*
X118568869Y-103707261D01*
X118592678Y-103754880D01*
X118640297Y-103778690D01*
X118711726Y-103778690D01*
X118759345Y-103754880D01*
X118783154Y-103731071D01*
X119235535Y-103778690D02*
X119235535Y-103278690D01*
X119235535Y-103754880D02*
X119187916Y-103778690D01*
X119092678Y-103778690D01*
X119045059Y-103754880D01*
X119021250Y-103731071D01*
X118997440Y-103683452D01*
X118997440Y-103540595D01*
X119021250Y-103492976D01*
X119045059Y-103469166D01*
X119092678Y-103445357D01*
X119187916Y-103445357D01*
X119235535Y-103469166D01*
X119473630Y-103778690D02*
X119473630Y-103445357D01*
X119473630Y-103278690D02*
X119449821Y-103302500D01*
X119473630Y-103326309D01*
X119497440Y-103302500D01*
X119473630Y-103278690D01*
X119473630Y-103326309D01*
X119783154Y-103778690D02*
X119735535Y-103754880D01*
X119711726Y-103731071D01*
X119687916Y-103683452D01*
X119687916Y-103540595D01*
X119711726Y-103492976D01*
X119735535Y-103469166D01*
X119783154Y-103445357D01*
X119854583Y-103445357D01*
X119902202Y-103469166D01*
X119926011Y-103492976D01*
X119949821Y-103540595D01*
X119949821Y-103683452D01*
X119926011Y-103731071D01*
X119902202Y-103754880D01*
X119854583Y-103778690D01*
X119783154Y-103778690D01*
X118426011Y-104653690D02*
X118259345Y-104415595D01*
X118140297Y-104653690D02*
X118140297Y-104153690D01*
X118330773Y-104153690D01*
X118378392Y-104177500D01*
X118402202Y-104201309D01*
X118426011Y-104248928D01*
X118426011Y-104320357D01*
X118402202Y-104367976D01*
X118378392Y-104391785D01*
X118330773Y-104415595D01*
X118140297Y-104415595D01*
X118640297Y-104653690D02*
X118640297Y-104320357D01*
X118640297Y-104153690D02*
X118616488Y-104177500D01*
X118640297Y-104201309D01*
X118664107Y-104177500D01*
X118640297Y-104153690D01*
X118640297Y-104201309D01*
X119092678Y-104320357D02*
X119092678Y-104725119D01*
X119068869Y-104772738D01*
X119045059Y-104796547D01*
X118997440Y-104820357D01*
X118926011Y-104820357D01*
X118878392Y-104796547D01*
X119092678Y-104629880D02*
X119045059Y-104653690D01*
X118949821Y-104653690D01*
X118902202Y-104629880D01*
X118878392Y-104606071D01*
X118854583Y-104558452D01*
X118854583Y-104415595D01*
X118878392Y-104367976D01*
X118902202Y-104344166D01*
X118949821Y-104320357D01*
X119045059Y-104320357D01*
X119092678Y-104344166D01*
X119330773Y-104653690D02*
X119330773Y-104153690D01*
X119545059Y-104653690D02*
X119545059Y-104391785D01*
X119521250Y-104344166D01*
X119473630Y-104320357D01*
X119402202Y-104320357D01*
X119354583Y-104344166D01*
X119330773Y-104367976D01*
X119711726Y-104320357D02*
X119902202Y-104320357D01*
X119783154Y-104153690D02*
X119783154Y-104582261D01*
X119806964Y-104629880D01*
X119854583Y-104653690D01*
X119902202Y-104653690D01*
X123056488Y-95095833D02*
X123294583Y-95095833D01*
X123008869Y-95238690D02*
X123175535Y-94738690D01*
X123342202Y-95238690D01*
X123508869Y-94738690D02*
X123508869Y-95143452D01*
X123532678Y-95191071D01*
X123556488Y-95214880D01*
X123604107Y-95238690D01*
X123699345Y-95238690D01*
X123746964Y-95214880D01*
X123770773Y-95191071D01*
X123794583Y-95143452D01*
X123794583Y-94738690D01*
X124032678Y-95238690D02*
X124032678Y-94738690D01*
X124151726Y-94738690D01*
X124223154Y-94762500D01*
X124270773Y-94810119D01*
X124294583Y-94857738D01*
X124318392Y-94952976D01*
X124318392Y-95024404D01*
X124294583Y-95119642D01*
X124270773Y-95167261D01*
X124223154Y-95214880D01*
X124151726Y-95238690D01*
X124032678Y-95238690D01*
X124532678Y-95238690D02*
X124532678Y-94738690D01*
X124866011Y-94738690D02*
X124961250Y-94738690D01*
X125008869Y-94762500D01*
X125056488Y-94810119D01*
X125080297Y-94905357D01*
X125080297Y-95072023D01*
X125056488Y-95167261D01*
X125008869Y-95214880D01*
X124961250Y-95238690D01*
X124866011Y-95238690D01*
X124818392Y-95214880D01*
X124770773Y-95167261D01*
X124746964Y-95072023D01*
X124746964Y-94905357D01*
X124770773Y-94810119D01*
X124818392Y-94762500D01*
X124866011Y-94738690D01*
X123342202Y-95637500D02*
X123294583Y-95613690D01*
X123223154Y-95613690D01*
X123151726Y-95637500D01*
X123104107Y-95685119D01*
X123080297Y-95732738D01*
X123056488Y-95827976D01*
X123056488Y-95899404D01*
X123080297Y-95994642D01*
X123104107Y-96042261D01*
X123151726Y-96089880D01*
X123223154Y-96113690D01*
X123270773Y-96113690D01*
X123342202Y-96089880D01*
X123366011Y-96066071D01*
X123366011Y-95899404D01*
X123270773Y-95899404D01*
X123580297Y-96113690D02*
X123580297Y-95613690D01*
X123866011Y-96113690D01*
X123866011Y-95613690D01*
X124104107Y-96113690D02*
X124104107Y-95613690D01*
X124223154Y-95613690D01*
X124294583Y-95637500D01*
X124342202Y-95685119D01*
X124366011Y-95732738D01*
X124389821Y-95827976D01*
X124389821Y-95899404D01*
X124366011Y-95994642D01*
X124342202Y-96042261D01*
X124294583Y-96089880D01*
X124223154Y-96113690D01*
X124104107Y-96113690D01*
D13*
X151050000Y-98010000D02*
X151050000Y-96610000D01*
X151750000Y-95910000D02*
X152350000Y-95910000D01*
X153050000Y-96610000D02*
X153050000Y-98010000D01*
X152350000Y-98710000D02*
X151750000Y-98710000D01*
X151750000Y-98710000D02*
G75*
G02*
X151050000Y-98010000I0J700000D01*
G01*
X153050000Y-98010000D02*
G75*
G02*
X152350000Y-98710000I-700000J0D01*
G01*
X152350000Y-95910000D02*
G75*
G02*
X153050000Y-96610000I0J-700000D01*
G01*
X151050000Y-96610000D02*
G75*
G02*
X151750000Y-95910000I700000J0D01*
G01*
D12*
X151610000Y-100570000D02*
X151610000Y-100790000D01*
X152510000Y-100570000D02*
X152510000Y-100790000D01*
D10*
X151106190Y-101753333D02*
X150868095Y-101920000D01*
X151106190Y-102039047D02*
X150606190Y-102039047D01*
X150606190Y-101848571D01*
X150630000Y-101800952D01*
X150653809Y-101777142D01*
X150701428Y-101753333D01*
X150772857Y-101753333D01*
X150820476Y-101777142D01*
X150844285Y-101800952D01*
X150868095Y-101848571D01*
X150868095Y-102039047D01*
X151106190Y-101277142D02*
X151106190Y-101562857D01*
X151106190Y-101420000D02*
X150606190Y-101420000D01*
X150677619Y-101467619D01*
X150725238Y-101515238D01*
X150749047Y-101562857D01*
X134026666Y-96248571D02*
X134002857Y-96272380D01*
X133931428Y-96296190D01*
X133883809Y-96296190D01*
X133812380Y-96272380D01*
X133764761Y-96224761D01*
X133740952Y-96177142D01*
X133717142Y-96081904D01*
X133717142Y-96010476D01*
X133740952Y-95915238D01*
X133764761Y-95867619D01*
X133812380Y-95820000D01*
X133883809Y-95796190D01*
X133931428Y-95796190D01*
X134002857Y-95820000D01*
X134026666Y-95843809D01*
X134502857Y-96296190D02*
X134217142Y-96296190D01*
X134360000Y-96296190D02*
X134360000Y-95796190D01*
X134312380Y-95867619D01*
X134264761Y-95915238D01*
X134217142Y-95939047D01*
X134868571Y-99663333D02*
X134892380Y-99687142D01*
X134916190Y-99758571D01*
X134916190Y-99806190D01*
X134892380Y-99877619D01*
X134844761Y-99925238D01*
X134797142Y-99949047D01*
X134701904Y-99972857D01*
X134630476Y-99972857D01*
X134535238Y-99949047D01*
X134487619Y-99925238D01*
X134440000Y-99877619D01*
X134416190Y-99806190D01*
X134416190Y-99758571D01*
X134440000Y-99687142D01*
X134463809Y-99663333D01*
X134463809Y-99472857D02*
X134440000Y-99449047D01*
X134416190Y-99401428D01*
X134416190Y-99282380D01*
X134440000Y-99234761D01*
X134463809Y-99210952D01*
X134511428Y-99187142D01*
X134559047Y-99187142D01*
X134630476Y-99210952D01*
X134916190Y-99496666D01*
X134916190Y-99187142D01*
%LPC*%
D14*
G36*
X151249802Y-96653887D02*
G01*
X151249802Y-96635466D01*
X151250047Y-96630486D01*
X151254857Y-96581655D01*
X151255588Y-96576725D01*
X151265160Y-96528600D01*
X151266372Y-96523763D01*
X151280616Y-96476808D01*
X151282295Y-96472115D01*
X151301072Y-96426782D01*
X151303204Y-96422274D01*
X151326335Y-96379001D01*
X151328897Y-96374727D01*
X151356157Y-96333928D01*
X151359127Y-96329923D01*
X151390255Y-96291994D01*
X151393603Y-96288300D01*
X151428300Y-96253603D01*
X151431994Y-96250255D01*
X151469923Y-96219127D01*
X151473928Y-96216157D01*
X151514727Y-96188897D01*
X151519001Y-96186335D01*
X151562274Y-96163204D01*
X151566782Y-96161072D01*
X151612115Y-96142295D01*
X151616808Y-96140616D01*
X151663763Y-96126372D01*
X151668600Y-96125160D01*
X151716725Y-96115588D01*
X151721655Y-96114857D01*
X151770486Y-96110047D01*
X151775466Y-96109802D01*
X151793887Y-96109802D01*
X151800000Y-96109200D01*
X152300000Y-96109200D01*
X152306113Y-96109802D01*
X152324534Y-96109802D01*
X152329514Y-96110047D01*
X152378345Y-96114857D01*
X152383275Y-96115588D01*
X152431400Y-96125160D01*
X152436237Y-96126372D01*
X152483192Y-96140616D01*
X152487885Y-96142295D01*
X152533218Y-96161072D01*
X152537726Y-96163204D01*
X152580999Y-96186335D01*
X152585273Y-96188897D01*
X152626072Y-96216157D01*
X152630077Y-96219127D01*
X152668006Y-96250255D01*
X152671700Y-96253603D01*
X152706397Y-96288300D01*
X152709745Y-96291994D01*
X152740873Y-96329923D01*
X152743843Y-96333928D01*
X152771103Y-96374727D01*
X152773665Y-96379001D01*
X152796796Y-96422274D01*
X152798928Y-96426782D01*
X152817705Y-96472115D01*
X152819384Y-96476808D01*
X152833628Y-96523763D01*
X152834840Y-96528600D01*
X152844412Y-96576725D01*
X152845143Y-96581655D01*
X152849953Y-96630486D01*
X152850198Y-96635466D01*
X152850198Y-96653887D01*
X152850800Y-96660000D01*
X152850800Y-97160000D01*
X152849824Y-97169911D01*
X152846933Y-97179440D01*
X152842239Y-97188223D01*
X152835921Y-97195921D01*
X152828223Y-97202239D01*
X152819440Y-97206933D01*
X152809911Y-97209824D01*
X152800000Y-97210800D01*
X151300000Y-97210800D01*
X151290089Y-97209824D01*
X151280560Y-97206933D01*
X151271777Y-97202239D01*
X151264079Y-97195921D01*
X151257761Y-97188223D01*
X151253067Y-97179440D01*
X151250176Y-97169911D01*
X151249200Y-97160000D01*
X151249200Y-96660000D01*
X151249802Y-96653887D01*
G37*
G36*
X151250176Y-97450089D02*
G01*
X151253067Y-97440560D01*
X151257761Y-97431777D01*
X151264079Y-97424079D01*
X151271777Y-97417761D01*
X151280560Y-97413067D01*
X151290089Y-97410176D01*
X151300000Y-97409200D01*
X152800000Y-97409200D01*
X152809911Y-97410176D01*
X152819440Y-97413067D01*
X152828223Y-97417761D01*
X152835921Y-97424079D01*
X152842239Y-97431777D01*
X152846933Y-97440560D01*
X152849824Y-97450089D01*
X152850800Y-97460000D01*
X152850800Y-97960000D01*
X152850198Y-97966113D01*
X152850198Y-97984534D01*
X152849953Y-97989514D01*
X152845143Y-98038345D01*
X152844412Y-98043275D01*
X152834840Y-98091400D01*
X152833628Y-98096237D01*
X152819384Y-98143192D01*
X152817705Y-98147885D01*
X152798928Y-98193218D01*
X152796796Y-98197726D01*
X152773665Y-98240999D01*
X152771103Y-98245273D01*
X152743843Y-98286072D01*
X152740873Y-98290077D01*
X152709745Y-98328006D01*
X152706397Y-98331700D01*
X152671700Y-98366397D01*
X152668006Y-98369745D01*
X152630077Y-98400873D01*
X152626072Y-98403843D01*
X152585273Y-98431103D01*
X152580999Y-98433665D01*
X152537726Y-98456796D01*
X152533218Y-98458928D01*
X152487885Y-98477705D01*
X152483192Y-98479384D01*
X152436237Y-98493628D01*
X152431400Y-98494840D01*
X152383275Y-98504412D01*
X152378345Y-98505143D01*
X152329514Y-98509953D01*
X152324534Y-98510198D01*
X152306113Y-98510198D01*
X152300000Y-98510800D01*
X151800000Y-98510800D01*
X151793887Y-98510198D01*
X151775466Y-98510198D01*
X151770486Y-98509953D01*
X151721655Y-98505143D01*
X151716725Y-98504412D01*
X151668600Y-98494840D01*
X151663763Y-98493628D01*
X151616808Y-98479384D01*
X151612115Y-98477705D01*
X151566782Y-98458928D01*
X151562274Y-98456796D01*
X151519001Y-98433665D01*
X151514727Y-98431103D01*
X151473928Y-98403843D01*
X151469923Y-98400873D01*
X151431994Y-98369745D01*
X151428300Y-98366397D01*
X151393603Y-98331700D01*
X151390255Y-98328006D01*
X151359127Y-98290077D01*
X151356157Y-98286072D01*
X151328897Y-98245273D01*
X151326335Y-98240999D01*
X151303204Y-98197726D01*
X151301072Y-98193218D01*
X151282295Y-98147885D01*
X151280616Y-98143192D01*
X151266372Y-98096237D01*
X151265160Y-98091400D01*
X151255588Y-98043275D01*
X151254857Y-98038345D01*
X151250047Y-97989514D01*
X151249802Y-97984534D01*
X151249802Y-97966113D01*
X151249200Y-97960000D01*
X151249200Y-97460000D01*
X151250176Y-97450089D01*
G37*
G36*
G01*
X151595000Y-99414200D02*
X152525000Y-99414200D01*
G75*
G02*
X152575800Y-99465000I0J-50800D01*
G01*
X152575800Y-100255000D01*
G75*
G02*
X152525000Y-100305800I-50800J0D01*
G01*
X151595000Y-100305800D01*
G75*
G02*
X151544200Y-100255000I0J50800D01*
G01*
X151544200Y-99465000D01*
G75*
G02*
X151595000Y-99414200I50800J0D01*
G01*
G37*
G36*
G01*
X151595000Y-101054200D02*
X152525000Y-101054200D01*
G75*
G02*
X152575800Y-101105000I0J-50800D01*
G01*
X152575800Y-101895000D01*
G75*
G02*
X152525000Y-101945800I-50800J0D01*
G01*
X151595000Y-101945800D01*
G75*
G02*
X151544200Y-101895000I0J50800D01*
G01*
X151544200Y-101105000D01*
G75*
G02*
X151595000Y-101054200I50800J0D01*
G01*
G37*
G36*
G01*
X136465800Y-94345000D02*
X136465800Y-95315000D01*
G75*
G02*
X136415000Y-95365800I-50800J0D01*
G01*
X135495000Y-95365800D01*
G75*
G02*
X135444200Y-95315000I0J50800D01*
G01*
X135444200Y-94345000D01*
G75*
G02*
X135495000Y-94294200I50800J0D01*
G01*
X136415000Y-94294200D01*
G75*
G02*
X136465800Y-94345000I0J-50800D01*
G01*
G37*
G36*
G01*
X134915800Y-94345000D02*
X134915800Y-95315000D01*
G75*
G02*
X134865000Y-95365800I-50800J0D01*
G01*
X133945000Y-95365800D01*
G75*
G02*
X133894200Y-95315000I0J50800D01*
G01*
X133894200Y-94345000D01*
G75*
G02*
X133945000Y-94294200I50800J0D01*
G01*
X134865000Y-94294200D01*
G75*
G02*
X134915800Y-94345000I0J-50800D01*
G01*
G37*
G36*
G01*
X135365000Y-97239200D02*
X136335000Y-97239200D01*
G75*
G02*
X136385800Y-97290000I0J-50800D01*
G01*
X136385800Y-98210000D01*
G75*
G02*
X136335000Y-98260800I-50800J0D01*
G01*
X135365000Y-98260800D01*
G75*
G02*
X135314200Y-98210000I0J50800D01*
G01*
X135314200Y-97290000D01*
G75*
G02*
X135365000Y-97239200I50800J0D01*
G01*
G37*
G36*
G01*
X135365000Y-98789200D02*
X136335000Y-98789200D01*
G75*
G02*
X136385800Y-98840000I0J-50800D01*
G01*
X136385800Y-99760000D01*
G75*
G02*
X136335000Y-99810800I-50800J0D01*
G01*
X135365000Y-99810800D01*
G75*
G02*
X135314200Y-99760000I0J50800D01*
G01*
X135314200Y-98840000D01*
G75*
G02*
X135365000Y-98789200I50800J0D01*
G01*
G37*
D15*
X119610000Y-94320000D03*
X117610000Y-96720000D03*
X119610000Y-100420000D03*
X117610000Y-102220000D03*
X119610000Y-105920000D03*
G36*
G01*
X149025800Y-99320000D02*
X149025800Y-101020000D01*
G75*
G02*
X148975000Y-101070800I-50800J0D01*
G01*
X147275000Y-101070800D01*
G75*
G02*
X147224200Y-101020000I0J50800D01*
G01*
X147224200Y-99320000D01*
G75*
G02*
X147275000Y-99269200I50800J0D01*
G01*
X148975000Y-99269200D01*
G75*
G02*
X149025800Y-99320000I0J-50800D01*
G01*
G37*
D16*
X156040000Y-98190000D03*
X131050000Y-98190000D03*
D17*
X145835000Y-100170000D03*
X143545000Y-100170000D03*
X141255000Y-100170000D03*
X138965000Y-100170000D03*
X149270000Y-98190000D03*
X146980000Y-98190000D03*
X144690000Y-98190000D03*
X142400000Y-98190000D03*
X140110000Y-98190000D03*
X148125000Y-96210000D03*
X145835000Y-96210000D03*
X143545000Y-96210000D03*
X141255000Y-96210000D03*
X138965000Y-96210000D03*
G36*
G01*
X148296068Y-104792120D02*
X148296068Y-106842920D01*
G75*
G02*
X147770668Y-107368320I-525400J0D01*
G01*
X146719868Y-107368320D01*
G75*
G02*
X146194468Y-106842920I0J525400D01*
G01*
X146194468Y-104792120D01*
G75*
G02*
X146719868Y-104266720I525400J0D01*
G01*
X147770668Y-104266720D01*
G75*
G02*
X148296068Y-104792120I0J-525400D01*
G01*
G37*
G36*
G01*
X156996068Y-104792120D02*
X156996068Y-106842920D01*
G75*
G02*
X156470668Y-107368320I-525400J0D01*
G01*
X155419868Y-107368320D01*
G75*
G02*
X154894468Y-106842920I0J525400D01*
G01*
X154894468Y-104792120D01*
G75*
G02*
X155419868Y-104266720I525400J0D01*
G01*
X156470668Y-104266720D01*
G75*
G02*
X156996068Y-104792120I0J-525400D01*
G01*
G37*
G36*
G01*
X137076068Y-104792120D02*
X137076068Y-106842920D01*
G75*
G02*
X136550668Y-107368320I-525400J0D01*
G01*
X135499868Y-107368320D01*
G75*
G02*
X134974468Y-106842920I0J525400D01*
G01*
X134974468Y-104792120D01*
G75*
G02*
X135499868Y-104266720I525400J0D01*
G01*
X136550668Y-104266720D01*
G75*
G02*
X137076068Y-104792120I0J-525400D01*
G01*
G37*
G36*
G01*
X142686068Y-104792120D02*
X142686068Y-106842920D01*
G75*
G02*
X142160668Y-107368320I-525400J0D01*
G01*
X141109868Y-107368320D01*
G75*
G02*
X140584468Y-106842920I0J525400D01*
G01*
X140584468Y-104792120D01*
G75*
G02*
X141109868Y-104266720I525400J0D01*
G01*
X142160668Y-104266720D01*
G75*
G02*
X142686068Y-104792120I0J-525400D01*
G01*
G37*
G36*
G01*
X153436068Y-104792120D02*
X153436068Y-106842920D01*
G75*
G02*
X152910668Y-107368320I-525400J0D01*
G01*
X151859868Y-107368320D01*
G75*
G02*
X151334468Y-106842920I0J525400D01*
G01*
X151334468Y-104792120D01*
G75*
G02*
X151859868Y-104266720I525400J0D01*
G01*
X152910668Y-104266720D01*
G75*
G02*
X153436068Y-104792120I0J-525400D01*
G01*
G37*
G36*
G01*
X124316068Y-104792120D02*
X124316068Y-106842920D01*
G75*
G02*
X123790668Y-107368320I-525400J0D01*
G01*
X122739868Y-107368320D01*
G75*
G02*
X122214468Y-106842920I0J525400D01*
G01*
X122214468Y-104792120D01*
G75*
G02*
X122739868Y-104266720I525400J0D01*
G01*
X123790668Y-104266720D01*
G75*
G02*
X124316068Y-104792120I0J-525400D01*
G01*
G37*
G36*
G01*
X117826068Y-103192120D02*
X117826068Y-105242920D01*
G75*
G02*
X117300668Y-105768320I-525400J0D01*
G01*
X116249868Y-105768320D01*
G75*
G02*
X115724468Y-105242920I0J525400D01*
G01*
X115724468Y-103192120D01*
G75*
G02*
X116249868Y-102666720I525400J0D01*
G01*
X117300668Y-102666720D01*
G75*
G02*
X117826068Y-103192120I0J-525400D01*
G01*
G37*
G36*
G01*
X122766068Y-94442120D02*
X122766068Y-96492920D01*
G75*
G02*
X122240668Y-97018320I-525400J0D01*
G01*
X121189868Y-97018320D01*
G75*
G02*
X120664468Y-96492920I0J525400D01*
G01*
X120664468Y-94442120D01*
G75*
G02*
X121189868Y-93916720I525400J0D01*
G01*
X122240668Y-93916720D01*
G75*
G02*
X122766068Y-94442120I0J-525400D01*
G01*
G37*
M02*
