G04 #@! TF.GenerationSoftware,KiCad,Pcbnew,(5.1.10-1-10_14)*
G04 #@! TF.CreationDate,2021-10-22T15:14:23-04:00*
G04 #@! TF.ProjectId,VGA2RT5X,56474132-5254-4355-982e-6b696361645f,1*
G04 #@! TF.SameCoordinates,Original*
G04 #@! TF.FileFunction,Copper,L2,Bot*
G04 #@! TF.FilePolarity,Positive*
%FSLAX46Y46*%
G04 Gerber Fmt 4.6, Leading zero omitted, Abs format (unit mm)*
G04 Created by KiCad (PCBNEW (5.1.10-1-10_14)) date 2021-10-22 15:14:23*
%MOMM*%
%LPD*%
G01*
G04 APERTURE LIST*
G04 #@! TA.AperFunction,ComponentPad*
%ADD10O,3.016000X1.508000*%
G04 #@! TD*
G04 #@! TA.AperFunction,ComponentPad*
%ADD11R,1.700000X1.700000*%
G04 #@! TD*
G04 #@! TA.AperFunction,ComponentPad*
%ADD12C,4.066000*%
G04 #@! TD*
G04 #@! TA.AperFunction,ComponentPad*
%ADD13C,1.700000*%
G04 #@! TD*
G04 #@! TA.AperFunction,ViaPad*
%ADD14C,0.700000*%
G04 #@! TD*
G04 #@! TA.AperFunction,Conductor*
%ADD15C,0.250000*%
G04 #@! TD*
G04 #@! TA.AperFunction,Conductor*
%ADD16C,0.160000*%
G04 #@! TD*
G04 #@! TA.AperFunction,Conductor*
%ADD17C,0.152400*%
G04 #@! TD*
G04 #@! TA.AperFunction,Conductor*
%ADD18C,0.025400*%
G04 #@! TD*
G04 APERTURE END LIST*
D10*
X119610000Y-94320000D03*
X117610000Y-96720000D03*
X119610000Y-100420000D03*
X117610000Y-102220000D03*
X119610000Y-105920000D03*
D11*
X148125000Y-100170000D03*
D12*
X156040000Y-98190000D03*
X131050000Y-98190000D03*
D13*
X145835000Y-100170000D03*
X143545000Y-100170000D03*
X141255000Y-100170000D03*
X138965000Y-100170000D03*
X149270000Y-98190000D03*
X146980000Y-98190000D03*
X144690000Y-98190000D03*
X142400000Y-98190000D03*
X140110000Y-98190000D03*
X148125000Y-96210000D03*
X145835000Y-96210000D03*
X143545000Y-96210000D03*
X141255000Y-96210000D03*
X138965000Y-96210000D03*
D14*
X149850000Y-103080000D03*
X145870000Y-103260000D03*
X149240000Y-94280000D03*
X127289998Y-95890000D03*
X125010000Y-99660000D03*
X153280000Y-101500000D03*
X152050000Y-95320000D03*
D15*
X143545000Y-96210000D02*
X143545000Y-95195000D01*
X143545000Y-95195000D02*
X144460000Y-94280000D01*
X144460000Y-94280000D02*
X149240000Y-94280000D01*
X149240000Y-94280000D02*
X149240000Y-94280000D01*
X127289998Y-100290002D02*
X127289998Y-95890000D01*
X121230000Y-102400000D02*
X125180000Y-102400000D01*
X119590000Y-104040000D02*
X121230000Y-102400000D01*
X125180000Y-102400000D02*
X127289998Y-100290002D01*
X119590000Y-105910000D02*
X119590000Y-104040000D01*
X125010000Y-99660000D02*
X120830000Y-99660000D01*
X120830000Y-99660000D02*
X120050000Y-100440000D01*
X153280000Y-101500000D02*
X152050000Y-100270000D01*
X152050000Y-100270000D02*
X152050000Y-95320000D01*
D16*
X118301091Y-93489521D02*
X118149735Y-93613735D01*
X118025521Y-93765091D01*
X117933221Y-93937772D01*
X117876383Y-94125142D01*
X117857191Y-94320000D01*
X117876383Y-94514858D01*
X117933221Y-94702228D01*
X118025521Y-94874909D01*
X118149735Y-95026265D01*
X118301091Y-95150479D01*
X118473772Y-95242779D01*
X118661142Y-95299617D01*
X118807174Y-95314000D01*
X120412826Y-95314000D01*
X120558858Y-95299617D01*
X120746228Y-95242779D01*
X120918909Y-95150479D01*
X121070265Y-95026265D01*
X121194479Y-94874909D01*
X121286779Y-94702228D01*
X121343617Y-94514858D01*
X121362809Y-94320000D01*
X121343617Y-94125142D01*
X121286779Y-93937772D01*
X121194479Y-93765091D01*
X121070265Y-93613735D01*
X120918909Y-93489521D01*
X120826262Y-93440000D01*
X158630000Y-93440000D01*
X158630001Y-107340000D01*
X115690000Y-107340000D01*
X115690000Y-105920000D01*
X117857191Y-105920000D01*
X117876383Y-106114858D01*
X117933221Y-106302228D01*
X118025521Y-106474909D01*
X118149735Y-106626265D01*
X118301091Y-106750479D01*
X118473772Y-106842779D01*
X118661142Y-106899617D01*
X118807174Y-106914000D01*
X120412826Y-106914000D01*
X120558858Y-106899617D01*
X120746228Y-106842779D01*
X120918909Y-106750479D01*
X121070265Y-106626265D01*
X121194479Y-106474909D01*
X121286779Y-106302228D01*
X121343617Y-106114858D01*
X121362809Y-105920000D01*
X121343617Y-105725142D01*
X121286779Y-105537772D01*
X121194479Y-105365091D01*
X121070265Y-105213735D01*
X120918909Y-105089521D01*
X120746228Y-104997221D01*
X120558858Y-104940383D01*
X120412826Y-104926000D01*
X120112377Y-104926000D01*
X120093799Y-104902318D01*
X120046682Y-104831189D01*
X120010407Y-104757864D01*
X119982240Y-104670463D01*
X119962727Y-104556342D01*
X119955000Y-104400073D01*
X119955000Y-104380199D01*
X127296510Y-104380199D01*
X127296510Y-104759801D01*
X127370567Y-105132109D01*
X127515834Y-105482816D01*
X127726730Y-105798444D01*
X127995149Y-106066863D01*
X128310777Y-106277759D01*
X128661484Y-106423026D01*
X129033792Y-106497083D01*
X129413394Y-106497083D01*
X129785702Y-106423026D01*
X130136409Y-106277759D01*
X130452037Y-106066863D01*
X130720456Y-105798444D01*
X130931352Y-105482816D01*
X131076619Y-105132109D01*
X131150676Y-104759801D01*
X131150676Y-104380199D01*
X131076619Y-104007891D01*
X130931352Y-103657184D01*
X130720456Y-103341556D01*
X130452037Y-103073137D01*
X130136409Y-102862241D01*
X129785702Y-102716974D01*
X129413394Y-102642917D01*
X129033792Y-102642917D01*
X128661484Y-102716974D01*
X128310777Y-102862241D01*
X127995149Y-103073137D01*
X127726730Y-103341556D01*
X127515834Y-103657184D01*
X127370567Y-104007891D01*
X127296510Y-104380199D01*
X119955000Y-104380199D01*
X119955000Y-104191187D01*
X121381188Y-102765000D01*
X125162071Y-102765000D01*
X125180000Y-102766766D01*
X125197929Y-102765000D01*
X125197931Y-102765000D01*
X125251552Y-102759719D01*
X125320355Y-102738848D01*
X125383764Y-102704955D01*
X125439343Y-102659343D01*
X125450779Y-102645408D01*
X127032827Y-101063360D01*
X138317713Y-101063360D01*
X138416372Y-101221149D01*
X138631983Y-101307983D01*
X138860391Y-101351085D01*
X139092819Y-101348799D01*
X139320336Y-101301213D01*
X139513628Y-101221149D01*
X139612287Y-101063360D01*
X138965000Y-100416073D01*
X138317713Y-101063360D01*
X127032827Y-101063360D01*
X127535416Y-100560772D01*
X127549340Y-100549345D01*
X127565756Y-100529343D01*
X127594952Y-100493767D01*
X127594953Y-100493766D01*
X127628846Y-100430357D01*
X127649717Y-100361554D01*
X127654998Y-100307933D01*
X127654998Y-100307931D01*
X127656764Y-100290002D01*
X127654998Y-100272073D01*
X127654998Y-99929002D01*
X129557071Y-99929002D01*
X129798864Y-100208067D01*
X130216609Y-100413375D01*
X130666381Y-100533239D01*
X131130895Y-100563055D01*
X131592301Y-100501676D01*
X132032866Y-100351460D01*
X132301136Y-100208067D01*
X132424756Y-100065391D01*
X137783915Y-100065391D01*
X137786201Y-100297819D01*
X137833787Y-100525336D01*
X137913851Y-100718628D01*
X138071640Y-100817287D01*
X138718927Y-100170000D01*
X138071640Y-99522713D01*
X137913851Y-99621372D01*
X137827017Y-99836983D01*
X137783915Y-100065391D01*
X132424756Y-100065391D01*
X132542929Y-99929002D01*
X131050000Y-98436073D01*
X129557071Y-99929002D01*
X127654998Y-99929002D01*
X127654998Y-98270895D01*
X128676945Y-98270895D01*
X128738324Y-98732301D01*
X128888540Y-99172866D01*
X129031933Y-99441136D01*
X129310998Y-99682929D01*
X130803927Y-98190000D01*
X131296073Y-98190000D01*
X132789002Y-99682929D01*
X133068067Y-99441136D01*
X133148911Y-99276640D01*
X138317713Y-99276640D01*
X138965000Y-99923927D01*
X138979143Y-99909785D01*
X139225216Y-100155858D01*
X139211073Y-100170000D01*
X139858360Y-100817287D01*
X140016149Y-100718628D01*
X140102983Y-100503017D01*
X140146085Y-100274609D01*
X140144001Y-100062644D01*
X140165000Y-100062644D01*
X140165000Y-100277356D01*
X140206888Y-100487941D01*
X140289055Y-100686309D01*
X140408342Y-100864834D01*
X140560166Y-101016658D01*
X140738691Y-101135945D01*
X140937059Y-101218112D01*
X141147644Y-101260000D01*
X141362356Y-101260000D01*
X141572941Y-101218112D01*
X141771309Y-101135945D01*
X141949834Y-101016658D01*
X142101658Y-100864834D01*
X142220945Y-100686309D01*
X142303112Y-100487941D01*
X142345000Y-100277356D01*
X142345000Y-100062644D01*
X142455000Y-100062644D01*
X142455000Y-100277356D01*
X142496888Y-100487941D01*
X142579055Y-100686309D01*
X142698342Y-100864834D01*
X142850166Y-101016658D01*
X143028691Y-101135945D01*
X143227059Y-101218112D01*
X143437644Y-101260000D01*
X143652356Y-101260000D01*
X143862941Y-101218112D01*
X144061309Y-101135945D01*
X144239834Y-101016658D01*
X144391658Y-100864834D01*
X144510945Y-100686309D01*
X144593112Y-100487941D01*
X144635000Y-100277356D01*
X144635000Y-100062644D01*
X144745000Y-100062644D01*
X144745000Y-100277356D01*
X144786888Y-100487941D01*
X144869055Y-100686309D01*
X144988342Y-100864834D01*
X145140166Y-101016658D01*
X145318691Y-101135945D01*
X145517059Y-101218112D01*
X145727644Y-101260000D01*
X145942356Y-101260000D01*
X146152941Y-101218112D01*
X146351309Y-101135945D01*
X146529834Y-101016658D01*
X146681658Y-100864834D01*
X146800945Y-100686309D01*
X146883112Y-100487941D01*
X146925000Y-100277356D01*
X146925000Y-100062644D01*
X146883112Y-99852059D01*
X146800945Y-99653691D01*
X146681658Y-99475166D01*
X146529834Y-99323342D01*
X146351309Y-99204055D01*
X146152941Y-99121888D01*
X145959248Y-99083360D01*
X146332713Y-99083360D01*
X146431372Y-99241149D01*
X146646983Y-99327983D01*
X146875391Y-99371085D01*
X147033839Y-99369527D01*
X147033839Y-101020000D01*
X147038473Y-101067048D01*
X147052196Y-101112288D01*
X147074482Y-101153982D01*
X147104473Y-101190527D01*
X147141018Y-101220518D01*
X147182712Y-101242804D01*
X147227952Y-101256527D01*
X147275000Y-101261161D01*
X148975000Y-101261161D01*
X149022048Y-101256527D01*
X149067288Y-101242804D01*
X149108982Y-101220518D01*
X149145527Y-101190527D01*
X149175518Y-101153982D01*
X149197804Y-101112288D01*
X149211527Y-101067048D01*
X149216161Y-101020000D01*
X149216161Y-99370586D01*
X149397819Y-99368799D01*
X149625336Y-99321213D01*
X149818628Y-99241149D01*
X149917287Y-99083360D01*
X149270000Y-98436073D01*
X148627234Y-99078839D01*
X147622766Y-99078839D01*
X146980000Y-98436073D01*
X146332713Y-99083360D01*
X145959248Y-99083360D01*
X145942356Y-99080000D01*
X145727644Y-99080000D01*
X145517059Y-99121888D01*
X145318691Y-99204055D01*
X145140166Y-99323342D01*
X144988342Y-99475166D01*
X144869055Y-99653691D01*
X144786888Y-99852059D01*
X144745000Y-100062644D01*
X144635000Y-100062644D01*
X144593112Y-99852059D01*
X144510945Y-99653691D01*
X144391658Y-99475166D01*
X144239834Y-99323342D01*
X144061309Y-99204055D01*
X143862941Y-99121888D01*
X143669248Y-99083360D01*
X144042713Y-99083360D01*
X144141372Y-99241149D01*
X144356983Y-99327983D01*
X144585391Y-99371085D01*
X144817819Y-99368799D01*
X145045336Y-99321213D01*
X145238628Y-99241149D01*
X145337287Y-99083360D01*
X144690000Y-98436073D01*
X144042713Y-99083360D01*
X143669248Y-99083360D01*
X143652356Y-99080000D01*
X143437644Y-99080000D01*
X143227059Y-99121888D01*
X143028691Y-99204055D01*
X142850166Y-99323342D01*
X142698342Y-99475166D01*
X142579055Y-99653691D01*
X142496888Y-99852059D01*
X142455000Y-100062644D01*
X142345000Y-100062644D01*
X142303112Y-99852059D01*
X142220945Y-99653691D01*
X142101658Y-99475166D01*
X141949834Y-99323342D01*
X141771309Y-99204055D01*
X141572941Y-99121888D01*
X141362356Y-99080000D01*
X141147644Y-99080000D01*
X140937059Y-99121888D01*
X140738691Y-99204055D01*
X140560166Y-99323342D01*
X140408342Y-99475166D01*
X140289055Y-99653691D01*
X140206888Y-99852059D01*
X140165000Y-100062644D01*
X140144001Y-100062644D01*
X140143799Y-100042181D01*
X140096213Y-99814664D01*
X140016149Y-99621372D01*
X139858362Y-99522714D01*
X139926187Y-99454889D01*
X139804467Y-99333169D01*
X140005391Y-99371085D01*
X140237819Y-99368799D01*
X140465336Y-99321213D01*
X140658628Y-99241149D01*
X140757287Y-99083360D01*
X140110000Y-98436073D01*
X140095858Y-98450216D01*
X139849785Y-98204143D01*
X139863927Y-98190000D01*
X140356073Y-98190000D01*
X141003360Y-98837287D01*
X141161149Y-98738628D01*
X141247983Y-98523017D01*
X141291085Y-98294609D01*
X141289001Y-98082644D01*
X141310000Y-98082644D01*
X141310000Y-98297356D01*
X141351888Y-98507941D01*
X141434055Y-98706309D01*
X141553342Y-98884834D01*
X141705166Y-99036658D01*
X141883691Y-99155945D01*
X142082059Y-99238112D01*
X142292644Y-99280000D01*
X142507356Y-99280000D01*
X142717941Y-99238112D01*
X142916309Y-99155945D01*
X143094834Y-99036658D01*
X143246658Y-98884834D01*
X143365945Y-98706309D01*
X143448112Y-98507941D01*
X143490000Y-98297356D01*
X143490000Y-98085391D01*
X143508915Y-98085391D01*
X143511201Y-98317819D01*
X143558787Y-98545336D01*
X143638851Y-98738628D01*
X143796640Y-98837287D01*
X144443927Y-98190000D01*
X144936073Y-98190000D01*
X145583360Y-98837287D01*
X145741149Y-98738628D01*
X145827983Y-98523017D01*
X145835636Y-98482460D01*
X145848787Y-98545336D01*
X145928851Y-98738628D01*
X146086640Y-98837287D01*
X146733927Y-98190000D01*
X147226073Y-98190000D01*
X147873360Y-98837287D01*
X148031149Y-98738628D01*
X148117983Y-98523017D01*
X148125636Y-98482460D01*
X148138787Y-98545336D01*
X148218851Y-98738628D01*
X148376640Y-98837287D01*
X149023927Y-98190000D01*
X149516073Y-98190000D01*
X150163360Y-98837287D01*
X150321149Y-98738628D01*
X150407983Y-98523017D01*
X150451085Y-98294609D01*
X150448799Y-98062181D01*
X150401213Y-97834664D01*
X150321149Y-97641372D01*
X150163360Y-97542713D01*
X149516073Y-98190000D01*
X149023927Y-98190000D01*
X148376640Y-97542713D01*
X148218851Y-97641372D01*
X148132017Y-97856983D01*
X148124364Y-97897540D01*
X148111213Y-97834664D01*
X148031149Y-97641372D01*
X147873360Y-97542713D01*
X147226073Y-98190000D01*
X146733927Y-98190000D01*
X146086640Y-97542713D01*
X145928851Y-97641372D01*
X145842017Y-97856983D01*
X145834364Y-97897540D01*
X145821213Y-97834664D01*
X145741149Y-97641372D01*
X145583360Y-97542713D01*
X144936073Y-98190000D01*
X144443927Y-98190000D01*
X143796640Y-97542713D01*
X143638851Y-97641372D01*
X143552017Y-97856983D01*
X143508915Y-98085391D01*
X143490000Y-98085391D01*
X143490000Y-98082644D01*
X143448112Y-97872059D01*
X143365945Y-97673691D01*
X143246658Y-97495166D01*
X143094834Y-97343342D01*
X142916309Y-97224055D01*
X142717941Y-97141888D01*
X142507356Y-97100000D01*
X142292644Y-97100000D01*
X142082059Y-97141888D01*
X141883691Y-97224055D01*
X141705166Y-97343342D01*
X141553342Y-97495166D01*
X141434055Y-97673691D01*
X141351888Y-97872059D01*
X141310000Y-98082644D01*
X141289001Y-98082644D01*
X141288799Y-98062181D01*
X141241213Y-97834664D01*
X141161149Y-97641372D01*
X141003360Y-97542713D01*
X140356073Y-98190000D01*
X139863927Y-98190000D01*
X139216640Y-97542713D01*
X139058851Y-97641372D01*
X138972017Y-97856983D01*
X138928915Y-98085391D01*
X138931201Y-98317819D01*
X138978787Y-98545336D01*
X139058851Y-98738628D01*
X139216638Y-98837286D01*
X139148813Y-98905111D01*
X139270533Y-99026831D01*
X139069609Y-98988915D01*
X138837181Y-98991201D01*
X138609664Y-99038787D01*
X138416372Y-99118851D01*
X138317713Y-99276640D01*
X133148911Y-99276640D01*
X133273375Y-99023391D01*
X133393239Y-98573619D01*
X133423055Y-98109105D01*
X133361676Y-97647699D01*
X133211460Y-97207134D01*
X133068067Y-96938864D01*
X132789002Y-96697071D01*
X131296073Y-98190000D01*
X130803927Y-98190000D01*
X129310998Y-96697071D01*
X129031933Y-96938864D01*
X128826625Y-97356609D01*
X128706761Y-97806381D01*
X128676945Y-98270895D01*
X127654998Y-98270895D01*
X127654998Y-96583819D01*
X127657073Y-96518361D01*
X127662059Y-96472598D01*
X127666480Y-96450998D01*
X129557071Y-96450998D01*
X131050000Y-97943927D01*
X132542929Y-96450998D01*
X132301136Y-96171933D01*
X132160153Y-96102644D01*
X137875000Y-96102644D01*
X137875000Y-96317356D01*
X137916888Y-96527941D01*
X137999055Y-96726309D01*
X138118342Y-96904834D01*
X138270166Y-97056658D01*
X138448691Y-97175945D01*
X138647059Y-97258112D01*
X138857644Y-97300000D01*
X139072356Y-97300000D01*
X139089247Y-97296640D01*
X139462713Y-97296640D01*
X140110000Y-97943927D01*
X140757287Y-97296640D01*
X140658628Y-97138851D01*
X140443017Y-97052017D01*
X140214609Y-97008915D01*
X139982181Y-97011201D01*
X139754664Y-97058787D01*
X139561372Y-97138851D01*
X139462713Y-97296640D01*
X139089247Y-97296640D01*
X139282941Y-97258112D01*
X139481309Y-97175945D01*
X139659834Y-97056658D01*
X139811658Y-96904834D01*
X139930945Y-96726309D01*
X140013112Y-96527941D01*
X140055000Y-96317356D01*
X140055000Y-96102644D01*
X140165000Y-96102644D01*
X140165000Y-96317356D01*
X140206888Y-96527941D01*
X140289055Y-96726309D01*
X140408342Y-96904834D01*
X140560166Y-97056658D01*
X140738691Y-97175945D01*
X140937059Y-97258112D01*
X141147644Y-97300000D01*
X141362356Y-97300000D01*
X141572941Y-97258112D01*
X141771309Y-97175945D01*
X141949834Y-97056658D01*
X142101658Y-96904834D01*
X142220945Y-96726309D01*
X142303112Y-96527941D01*
X142345000Y-96317356D01*
X142345000Y-96102644D01*
X142455000Y-96102644D01*
X142455000Y-96317356D01*
X142496888Y-96527941D01*
X142579055Y-96726309D01*
X142698342Y-96904834D01*
X142850166Y-97056658D01*
X143028691Y-97175945D01*
X143227059Y-97258112D01*
X143437644Y-97300000D01*
X143652356Y-97300000D01*
X143669247Y-97296640D01*
X144042713Y-97296640D01*
X144690000Y-97943927D01*
X145337287Y-97296640D01*
X145238628Y-97138851D01*
X145023017Y-97052017D01*
X144794609Y-97008915D01*
X144562181Y-97011201D01*
X144334664Y-97058787D01*
X144141372Y-97138851D01*
X144042713Y-97296640D01*
X143669247Y-97296640D01*
X143862941Y-97258112D01*
X144061309Y-97175945D01*
X144239834Y-97056658D01*
X144391658Y-96904834D01*
X144510945Y-96726309D01*
X144593112Y-96527941D01*
X144635000Y-96317356D01*
X144635000Y-96102644D01*
X144745000Y-96102644D01*
X144745000Y-96317356D01*
X144786888Y-96527941D01*
X144869055Y-96726309D01*
X144988342Y-96904834D01*
X145140166Y-97056658D01*
X145318691Y-97175945D01*
X145517059Y-97258112D01*
X145727644Y-97300000D01*
X145942356Y-97300000D01*
X145959247Y-97296640D01*
X146332713Y-97296640D01*
X146980000Y-97943927D01*
X147627287Y-97296640D01*
X147528628Y-97138851D01*
X147313017Y-97052017D01*
X147084609Y-97008915D01*
X146852181Y-97011201D01*
X146624664Y-97058787D01*
X146431372Y-97138851D01*
X146332713Y-97296640D01*
X145959247Y-97296640D01*
X146152941Y-97258112D01*
X146351309Y-97175945D01*
X146529834Y-97056658D01*
X146681658Y-96904834D01*
X146800945Y-96726309D01*
X146883112Y-96527941D01*
X146925000Y-96317356D01*
X146925000Y-96102644D01*
X147035000Y-96102644D01*
X147035000Y-96317356D01*
X147076888Y-96527941D01*
X147159055Y-96726309D01*
X147278342Y-96904834D01*
X147430166Y-97056658D01*
X147608691Y-97175945D01*
X147807059Y-97258112D01*
X148017644Y-97300000D01*
X148232356Y-97300000D01*
X148249247Y-97296640D01*
X148622713Y-97296640D01*
X149270000Y-97943927D01*
X149917287Y-97296640D01*
X149818628Y-97138851D01*
X149603017Y-97052017D01*
X149374609Y-97008915D01*
X149142181Y-97011201D01*
X148914664Y-97058787D01*
X148721372Y-97138851D01*
X148622713Y-97296640D01*
X148249247Y-97296640D01*
X148442941Y-97258112D01*
X148641309Y-97175945D01*
X148819834Y-97056658D01*
X148971658Y-96904834D01*
X149090945Y-96726309D01*
X149173112Y-96527941D01*
X149215000Y-96317356D01*
X149215000Y-96102644D01*
X149173112Y-95892059D01*
X149090945Y-95693691D01*
X148971658Y-95515166D01*
X148819834Y-95363342D01*
X148668001Y-95261890D01*
X151460000Y-95261890D01*
X151460000Y-95378110D01*
X151482673Y-95492097D01*
X151527149Y-95599470D01*
X151541108Y-95620361D01*
X151552328Y-95642205D01*
X151556874Y-95650637D01*
X151586106Y-95702359D01*
X151588537Y-95706560D01*
X151615196Y-95751579D01*
X151636926Y-95789045D01*
X151652301Y-95818488D01*
X151662974Y-95843467D01*
X151671147Y-95869423D01*
X151677938Y-95902598D01*
X151682926Y-95948374D01*
X151685001Y-96013818D01*
X151685000Y-100252071D01*
X151683234Y-100270000D01*
X151685000Y-100287929D01*
X151685000Y-100287930D01*
X151690281Y-100341551D01*
X151711152Y-100410354D01*
X151745045Y-100473763D01*
X151790657Y-100529342D01*
X151804588Y-100540775D01*
X152531331Y-101267519D01*
X152576109Y-101315229D01*
X152604955Y-101351130D01*
X152623608Y-101379385D01*
X152636186Y-101403524D01*
X152646304Y-101428740D01*
X152656247Y-101460416D01*
X152667365Y-101502236D01*
X152680356Y-101552958D01*
X152681609Y-101557653D01*
X152697512Y-101614896D01*
X152700260Y-101624072D01*
X152707769Y-101647440D01*
X152712673Y-101672097D01*
X152757149Y-101779470D01*
X152821717Y-101876103D01*
X152903897Y-101958283D01*
X153000530Y-102022851D01*
X153107903Y-102067327D01*
X153221890Y-102090000D01*
X153338110Y-102090000D01*
X153452097Y-102067327D01*
X153559470Y-102022851D01*
X153656103Y-101958283D01*
X153738283Y-101876103D01*
X153802851Y-101779470D01*
X153847327Y-101672097D01*
X153870000Y-101558110D01*
X153870000Y-101441890D01*
X153847327Y-101327903D01*
X153802851Y-101220530D01*
X153738283Y-101123897D01*
X153656103Y-101041717D01*
X153559470Y-100977149D01*
X153452097Y-100932673D01*
X153427440Y-100927769D01*
X153404072Y-100920260D01*
X153394896Y-100917512D01*
X153337653Y-100901609D01*
X153332958Y-100900356D01*
X153282236Y-100887365D01*
X153240416Y-100876247D01*
X153208740Y-100866304D01*
X153183524Y-100856186D01*
X153159385Y-100843608D01*
X153131130Y-100824955D01*
X153095229Y-100796109D01*
X153047519Y-100751331D01*
X152415000Y-100118813D01*
X152415000Y-99929002D01*
X154547071Y-99929002D01*
X154788864Y-100208067D01*
X155206609Y-100413375D01*
X155656381Y-100533239D01*
X156120895Y-100563055D01*
X156582301Y-100501676D01*
X157022866Y-100351460D01*
X157291136Y-100208067D01*
X157532929Y-99929002D01*
X156040000Y-98436073D01*
X154547071Y-99929002D01*
X152415000Y-99929002D01*
X152415000Y-98270895D01*
X153666945Y-98270895D01*
X153728324Y-98732301D01*
X153878540Y-99172866D01*
X154021933Y-99441136D01*
X154300998Y-99682929D01*
X155793927Y-98190000D01*
X156286073Y-98190000D01*
X157779002Y-99682929D01*
X158058067Y-99441136D01*
X158263375Y-99023391D01*
X158383239Y-98573619D01*
X158413055Y-98109105D01*
X158351676Y-97647699D01*
X158201460Y-97207134D01*
X158058067Y-96938864D01*
X157779002Y-96697071D01*
X156286073Y-98190000D01*
X155793927Y-98190000D01*
X154300998Y-96697071D01*
X154021933Y-96938864D01*
X153816625Y-97356609D01*
X153696761Y-97806381D01*
X153666945Y-98270895D01*
X152415000Y-98270895D01*
X152415000Y-96450998D01*
X154547071Y-96450998D01*
X156040000Y-97943927D01*
X157532929Y-96450998D01*
X157291136Y-96171933D01*
X156873391Y-95966625D01*
X156423619Y-95846761D01*
X155959105Y-95816945D01*
X155497699Y-95878324D01*
X155057134Y-96028540D01*
X154788864Y-96171933D01*
X154547071Y-96450998D01*
X152415000Y-96450998D01*
X152415000Y-96013819D01*
X152417075Y-95948361D01*
X152422061Y-95902598D01*
X152428852Y-95869423D01*
X152437025Y-95843467D01*
X152447698Y-95818488D01*
X152463073Y-95789045D01*
X152484803Y-95751579D01*
X152511462Y-95706560D01*
X152513893Y-95702359D01*
X152543125Y-95650637D01*
X152547669Y-95642208D01*
X152558887Y-95620368D01*
X152572851Y-95599470D01*
X152617327Y-95492097D01*
X152640000Y-95378110D01*
X152640000Y-95261890D01*
X152617327Y-95147903D01*
X152572851Y-95040530D01*
X152508283Y-94943897D01*
X152426103Y-94861717D01*
X152329470Y-94797149D01*
X152222097Y-94752673D01*
X152108110Y-94730000D01*
X151991890Y-94730000D01*
X151877903Y-94752673D01*
X151770530Y-94797149D01*
X151673897Y-94861717D01*
X151591717Y-94943897D01*
X151527149Y-95040530D01*
X151482673Y-95147903D01*
X151460000Y-95261890D01*
X148668001Y-95261890D01*
X148641309Y-95244055D01*
X148442941Y-95161888D01*
X148232356Y-95120000D01*
X148017644Y-95120000D01*
X147807059Y-95161888D01*
X147608691Y-95244055D01*
X147430166Y-95363342D01*
X147278342Y-95515166D01*
X147159055Y-95693691D01*
X147076888Y-95892059D01*
X147035000Y-96102644D01*
X146925000Y-96102644D01*
X146883112Y-95892059D01*
X146800945Y-95693691D01*
X146681658Y-95515166D01*
X146529834Y-95363342D01*
X146351309Y-95244055D01*
X146152941Y-95161888D01*
X145942356Y-95120000D01*
X145727644Y-95120000D01*
X145517059Y-95161888D01*
X145318691Y-95244055D01*
X145140166Y-95363342D01*
X144988342Y-95515166D01*
X144869055Y-95693691D01*
X144786888Y-95892059D01*
X144745000Y-96102644D01*
X144635000Y-96102644D01*
X144593112Y-95892059D01*
X144510945Y-95693691D01*
X144476587Y-95642271D01*
X144456576Y-95604939D01*
X144449547Y-95592703D01*
X144380422Y-95480175D01*
X144377829Y-95476049D01*
X144311473Y-95372789D01*
X144256487Y-95282545D01*
X144219327Y-95209205D01*
X144201450Y-95155628D01*
X144198024Y-95120289D01*
X144204006Y-95088732D01*
X144228345Y-95040774D01*
X144294956Y-94961232D01*
X144611188Y-94645000D01*
X148546181Y-94645000D01*
X148611638Y-94647075D01*
X148657401Y-94652061D01*
X148690576Y-94658852D01*
X148716532Y-94667025D01*
X148741511Y-94677698D01*
X148770954Y-94693073D01*
X148808420Y-94714803D01*
X148853439Y-94741462D01*
X148857640Y-94743893D01*
X148909362Y-94773125D01*
X148917792Y-94777670D01*
X148939637Y-94788891D01*
X148960530Y-94802851D01*
X149067903Y-94847327D01*
X149181890Y-94870000D01*
X149298110Y-94870000D01*
X149412097Y-94847327D01*
X149519470Y-94802851D01*
X149616103Y-94738283D01*
X149698283Y-94656103D01*
X149762851Y-94559470D01*
X149807327Y-94452097D01*
X149830000Y-94338110D01*
X149830000Y-94221890D01*
X149807327Y-94107903D01*
X149762851Y-94000530D01*
X149698283Y-93903897D01*
X149616103Y-93821717D01*
X149519470Y-93757149D01*
X149412097Y-93712673D01*
X149298110Y-93690000D01*
X149181890Y-93690000D01*
X149067903Y-93712673D01*
X148960530Y-93757149D01*
X148939637Y-93771109D01*
X148917795Y-93782328D01*
X148909362Y-93786874D01*
X148857640Y-93816106D01*
X148853439Y-93818537D01*
X148808420Y-93845196D01*
X148770954Y-93866926D01*
X148741511Y-93882301D01*
X148716532Y-93892974D01*
X148690576Y-93901147D01*
X148657401Y-93907938D01*
X148611625Y-93912926D01*
X148546209Y-93915000D01*
X144477928Y-93915000D01*
X144459999Y-93913234D01*
X144442070Y-93915000D01*
X144442069Y-93915000D01*
X144388448Y-93920281D01*
X144319645Y-93941152D01*
X144319643Y-93941153D01*
X144256234Y-93975046D01*
X144243747Y-93985294D01*
X144200657Y-94020657D01*
X144189225Y-94034587D01*
X143771456Y-94452357D01*
X143771453Y-94452359D01*
X143634994Y-94588529D01*
X143519924Y-94702819D01*
X143421173Y-94800421D01*
X143333778Y-94886422D01*
X143252612Y-94966064D01*
X143173154Y-95043997D01*
X143172960Y-95044187D01*
X143090404Y-95125342D01*
X143090038Y-95125703D01*
X142999540Y-95215047D01*
X142999094Y-95215488D01*
X142895811Y-95317988D01*
X142895367Y-95318430D01*
X142850716Y-95362974D01*
X142850166Y-95363342D01*
X142698342Y-95515166D01*
X142579055Y-95693691D01*
X142496888Y-95892059D01*
X142455000Y-96102644D01*
X142345000Y-96102644D01*
X142303112Y-95892059D01*
X142220945Y-95693691D01*
X142101658Y-95515166D01*
X141949834Y-95363342D01*
X141771309Y-95244055D01*
X141572941Y-95161888D01*
X141362356Y-95120000D01*
X141147644Y-95120000D01*
X140937059Y-95161888D01*
X140738691Y-95244055D01*
X140560166Y-95363342D01*
X140408342Y-95515166D01*
X140289055Y-95693691D01*
X140206888Y-95892059D01*
X140165000Y-96102644D01*
X140055000Y-96102644D01*
X140013112Y-95892059D01*
X139930945Y-95693691D01*
X139811658Y-95515166D01*
X139659834Y-95363342D01*
X139481309Y-95244055D01*
X139282941Y-95161888D01*
X139072356Y-95120000D01*
X138857644Y-95120000D01*
X138647059Y-95161888D01*
X138448691Y-95244055D01*
X138270166Y-95363342D01*
X138118342Y-95515166D01*
X137999055Y-95693691D01*
X137916888Y-95892059D01*
X137875000Y-96102644D01*
X132160153Y-96102644D01*
X131883391Y-95966625D01*
X131433619Y-95846761D01*
X130969105Y-95816945D01*
X130507699Y-95878324D01*
X130067134Y-96028540D01*
X129798864Y-96171933D01*
X129557071Y-96450998D01*
X127666480Y-96450998D01*
X127668850Y-96439423D01*
X127677023Y-96413467D01*
X127687696Y-96388488D01*
X127703071Y-96359045D01*
X127724801Y-96321579D01*
X127751460Y-96276560D01*
X127753891Y-96272359D01*
X127783123Y-96220637D01*
X127787667Y-96212208D01*
X127798885Y-96190368D01*
X127812849Y-96169470D01*
X127857325Y-96062097D01*
X127879998Y-95948110D01*
X127879998Y-95831890D01*
X127857325Y-95717903D01*
X127812849Y-95610530D01*
X127748281Y-95513897D01*
X127666101Y-95431717D01*
X127569468Y-95367149D01*
X127462095Y-95322673D01*
X127348108Y-95300000D01*
X127231888Y-95300000D01*
X127117901Y-95322673D01*
X127010528Y-95367149D01*
X126913895Y-95431717D01*
X126831715Y-95513897D01*
X126767147Y-95610530D01*
X126722671Y-95717903D01*
X126699998Y-95831890D01*
X126699998Y-95948110D01*
X126722671Y-96062097D01*
X126767147Y-96169470D01*
X126781106Y-96190361D01*
X126792326Y-96212205D01*
X126796872Y-96220637D01*
X126826104Y-96272359D01*
X126828535Y-96276560D01*
X126855194Y-96321579D01*
X126876924Y-96359045D01*
X126892299Y-96388488D01*
X126902972Y-96413467D01*
X126911145Y-96439423D01*
X126917936Y-96472598D01*
X126922924Y-96518374D01*
X126924999Y-96583817D01*
X126924998Y-100138814D01*
X125028813Y-102035000D01*
X121247928Y-102035000D01*
X121229999Y-102033234D01*
X121212070Y-102035000D01*
X121212069Y-102035000D01*
X121158448Y-102040281D01*
X121089645Y-102061152D01*
X121035674Y-102090000D01*
X121026234Y-102095046D01*
X121002125Y-102114833D01*
X120970657Y-102140657D01*
X120959226Y-102154586D01*
X119344588Y-103769225D01*
X119330658Y-103780657D01*
X119319227Y-103794586D01*
X119285046Y-103836236D01*
X119251153Y-103899645D01*
X119230282Y-103968448D01*
X119223234Y-104040000D01*
X119225001Y-104057939D01*
X119225001Y-104400178D01*
X119217247Y-104560109D01*
X119197589Y-104677974D01*
X119169103Y-104769226D01*
X119132425Y-104846455D01*
X119085224Y-104921501D01*
X119081915Y-104926000D01*
X118807174Y-104926000D01*
X118661142Y-104940383D01*
X118473772Y-104997221D01*
X118301091Y-105089521D01*
X118149735Y-105213735D01*
X118025521Y-105365091D01*
X117933221Y-105537772D01*
X117876383Y-105725142D01*
X117857191Y-105920000D01*
X115690000Y-105920000D01*
X115690000Y-102220000D01*
X115857191Y-102220000D01*
X115876383Y-102414858D01*
X115933221Y-102602228D01*
X116025521Y-102774909D01*
X116149735Y-102926265D01*
X116301091Y-103050479D01*
X116473772Y-103142779D01*
X116661142Y-103199617D01*
X116807174Y-103214000D01*
X118412826Y-103214000D01*
X118558858Y-103199617D01*
X118746228Y-103142779D01*
X118918909Y-103050479D01*
X119070265Y-102926265D01*
X119194479Y-102774909D01*
X119286779Y-102602228D01*
X119343617Y-102414858D01*
X119362809Y-102220000D01*
X119343617Y-102025142D01*
X119286779Y-101837772D01*
X119194479Y-101665091D01*
X119070265Y-101513735D01*
X118948737Y-101414000D01*
X120412826Y-101414000D01*
X120558858Y-101399617D01*
X120746228Y-101342779D01*
X120918909Y-101250479D01*
X121070265Y-101126265D01*
X121194479Y-100974909D01*
X121286779Y-100802228D01*
X121343617Y-100614858D01*
X121362809Y-100420000D01*
X121343617Y-100225142D01*
X121286779Y-100037772D01*
X121279952Y-100025000D01*
X124316181Y-100025000D01*
X124381638Y-100027075D01*
X124427401Y-100032061D01*
X124460576Y-100038852D01*
X124486532Y-100047025D01*
X124511511Y-100057698D01*
X124540954Y-100073073D01*
X124578420Y-100094803D01*
X124623439Y-100121462D01*
X124627640Y-100123893D01*
X124679362Y-100153125D01*
X124687792Y-100157670D01*
X124709637Y-100168891D01*
X124730530Y-100182851D01*
X124837903Y-100227327D01*
X124951890Y-100250000D01*
X125068110Y-100250000D01*
X125182097Y-100227327D01*
X125289470Y-100182851D01*
X125386103Y-100118283D01*
X125468283Y-100036103D01*
X125532851Y-99939470D01*
X125577327Y-99832097D01*
X125600000Y-99718110D01*
X125600000Y-99601890D01*
X125577327Y-99487903D01*
X125532851Y-99380530D01*
X125468283Y-99283897D01*
X125386103Y-99201717D01*
X125289470Y-99137149D01*
X125182097Y-99092673D01*
X125068110Y-99070000D01*
X124951890Y-99070000D01*
X124837903Y-99092673D01*
X124730530Y-99137149D01*
X124709637Y-99151109D01*
X124687795Y-99162328D01*
X124679362Y-99166874D01*
X124627640Y-99196106D01*
X124623439Y-99198537D01*
X124578420Y-99225196D01*
X124540954Y-99246926D01*
X124511511Y-99262301D01*
X124486532Y-99272974D01*
X124460576Y-99281147D01*
X124427401Y-99287938D01*
X124381625Y-99292926D01*
X124316209Y-99295000D01*
X120847929Y-99295000D01*
X120830000Y-99293234D01*
X120812071Y-99295000D01*
X120812069Y-99295000D01*
X120784989Y-99297667D01*
X120699825Y-99300436D01*
X120683029Y-99301573D01*
X120545496Y-99315742D01*
X120529105Y-99318004D01*
X120411445Y-99338397D01*
X120398344Y-99341045D01*
X120294675Y-99365025D01*
X120288181Y-99366623D01*
X120193931Y-99391210D01*
X120107863Y-99412642D01*
X120039378Y-99426000D01*
X118807174Y-99426000D01*
X118661142Y-99440383D01*
X118473772Y-99497221D01*
X118301091Y-99589521D01*
X118149735Y-99713735D01*
X118025521Y-99865091D01*
X117933221Y-100037772D01*
X117876383Y-100225142D01*
X117857191Y-100420000D01*
X117876383Y-100614858D01*
X117933221Y-100802228D01*
X118025521Y-100974909D01*
X118149735Y-101126265D01*
X118271263Y-101226000D01*
X116807174Y-101226000D01*
X116661142Y-101240383D01*
X116473772Y-101297221D01*
X116301091Y-101389521D01*
X116149735Y-101513735D01*
X116025521Y-101665091D01*
X115933221Y-101837772D01*
X115876383Y-102025142D01*
X115857191Y-102220000D01*
X115690000Y-102220000D01*
X115690000Y-96720000D01*
X115857191Y-96720000D01*
X115876383Y-96914858D01*
X115933221Y-97102228D01*
X116025521Y-97274909D01*
X116149735Y-97426265D01*
X116301091Y-97550479D01*
X116473772Y-97642779D01*
X116661142Y-97699617D01*
X116807174Y-97714000D01*
X118412826Y-97714000D01*
X118558858Y-97699617D01*
X118746228Y-97642779D01*
X118918909Y-97550479D01*
X119070265Y-97426265D01*
X119194479Y-97274909D01*
X119286779Y-97102228D01*
X119343617Y-96914858D01*
X119362809Y-96720000D01*
X119343617Y-96525142D01*
X119286779Y-96337772D01*
X119194479Y-96165091D01*
X119070265Y-96013735D01*
X118918909Y-95889521D01*
X118746228Y-95797221D01*
X118558858Y-95740383D01*
X118412826Y-95726000D01*
X116807174Y-95726000D01*
X116661142Y-95740383D01*
X116473772Y-95797221D01*
X116301091Y-95889521D01*
X116149735Y-96013735D01*
X116025521Y-96165091D01*
X115933221Y-96337772D01*
X115876383Y-96525142D01*
X115857191Y-96720000D01*
X115690000Y-96720000D01*
X115690000Y-93440000D01*
X118393738Y-93440000D01*
X118301091Y-93489521D01*
G04 #@! TA.AperFunction,Conductor*
D17*
G36*
X118301091Y-93489521D02*
G01*
X118149735Y-93613735D01*
X118025521Y-93765091D01*
X117933221Y-93937772D01*
X117876383Y-94125142D01*
X117857191Y-94320000D01*
X117876383Y-94514858D01*
X117933221Y-94702228D01*
X118025521Y-94874909D01*
X118149735Y-95026265D01*
X118301091Y-95150479D01*
X118473772Y-95242779D01*
X118661142Y-95299617D01*
X118807174Y-95314000D01*
X120412826Y-95314000D01*
X120558858Y-95299617D01*
X120746228Y-95242779D01*
X120918909Y-95150479D01*
X121070265Y-95026265D01*
X121194479Y-94874909D01*
X121286779Y-94702228D01*
X121343617Y-94514858D01*
X121362809Y-94320000D01*
X121343617Y-94125142D01*
X121286779Y-93937772D01*
X121194479Y-93765091D01*
X121070265Y-93613735D01*
X120918909Y-93489521D01*
X120826262Y-93440000D01*
X158630000Y-93440000D01*
X158630001Y-107340000D01*
X115690000Y-107340000D01*
X115690000Y-105920000D01*
X117857191Y-105920000D01*
X117876383Y-106114858D01*
X117933221Y-106302228D01*
X118025521Y-106474909D01*
X118149735Y-106626265D01*
X118301091Y-106750479D01*
X118473772Y-106842779D01*
X118661142Y-106899617D01*
X118807174Y-106914000D01*
X120412826Y-106914000D01*
X120558858Y-106899617D01*
X120746228Y-106842779D01*
X120918909Y-106750479D01*
X121070265Y-106626265D01*
X121194479Y-106474909D01*
X121286779Y-106302228D01*
X121343617Y-106114858D01*
X121362809Y-105920000D01*
X121343617Y-105725142D01*
X121286779Y-105537772D01*
X121194479Y-105365091D01*
X121070265Y-105213735D01*
X120918909Y-105089521D01*
X120746228Y-104997221D01*
X120558858Y-104940383D01*
X120412826Y-104926000D01*
X120112377Y-104926000D01*
X120093799Y-104902318D01*
X120046682Y-104831189D01*
X120010407Y-104757864D01*
X119982240Y-104670463D01*
X119962727Y-104556342D01*
X119955000Y-104400073D01*
X119955000Y-104380199D01*
X127296510Y-104380199D01*
X127296510Y-104759801D01*
X127370567Y-105132109D01*
X127515834Y-105482816D01*
X127726730Y-105798444D01*
X127995149Y-106066863D01*
X128310777Y-106277759D01*
X128661484Y-106423026D01*
X129033792Y-106497083D01*
X129413394Y-106497083D01*
X129785702Y-106423026D01*
X130136409Y-106277759D01*
X130452037Y-106066863D01*
X130720456Y-105798444D01*
X130931352Y-105482816D01*
X131076619Y-105132109D01*
X131150676Y-104759801D01*
X131150676Y-104380199D01*
X131076619Y-104007891D01*
X130931352Y-103657184D01*
X130720456Y-103341556D01*
X130452037Y-103073137D01*
X130136409Y-102862241D01*
X129785702Y-102716974D01*
X129413394Y-102642917D01*
X129033792Y-102642917D01*
X128661484Y-102716974D01*
X128310777Y-102862241D01*
X127995149Y-103073137D01*
X127726730Y-103341556D01*
X127515834Y-103657184D01*
X127370567Y-104007891D01*
X127296510Y-104380199D01*
X119955000Y-104380199D01*
X119955000Y-104191187D01*
X121381188Y-102765000D01*
X125162071Y-102765000D01*
X125180000Y-102766766D01*
X125197929Y-102765000D01*
X125197931Y-102765000D01*
X125251552Y-102759719D01*
X125320355Y-102738848D01*
X125383764Y-102704955D01*
X125439343Y-102659343D01*
X125450779Y-102645408D01*
X127032827Y-101063360D01*
X138317713Y-101063360D01*
X138416372Y-101221149D01*
X138631983Y-101307983D01*
X138860391Y-101351085D01*
X139092819Y-101348799D01*
X139320336Y-101301213D01*
X139513628Y-101221149D01*
X139612287Y-101063360D01*
X138965000Y-100416073D01*
X138317713Y-101063360D01*
X127032827Y-101063360D01*
X127535416Y-100560772D01*
X127549340Y-100549345D01*
X127565756Y-100529343D01*
X127594952Y-100493767D01*
X127594953Y-100493766D01*
X127628846Y-100430357D01*
X127649717Y-100361554D01*
X127654998Y-100307933D01*
X127654998Y-100307931D01*
X127656764Y-100290002D01*
X127654998Y-100272073D01*
X127654998Y-99929002D01*
X129557071Y-99929002D01*
X129798864Y-100208067D01*
X130216609Y-100413375D01*
X130666381Y-100533239D01*
X131130895Y-100563055D01*
X131592301Y-100501676D01*
X132032866Y-100351460D01*
X132301136Y-100208067D01*
X132424756Y-100065391D01*
X137783915Y-100065391D01*
X137786201Y-100297819D01*
X137833787Y-100525336D01*
X137913851Y-100718628D01*
X138071640Y-100817287D01*
X138718927Y-100170000D01*
X138071640Y-99522713D01*
X137913851Y-99621372D01*
X137827017Y-99836983D01*
X137783915Y-100065391D01*
X132424756Y-100065391D01*
X132542929Y-99929002D01*
X131050000Y-98436073D01*
X129557071Y-99929002D01*
X127654998Y-99929002D01*
X127654998Y-98270895D01*
X128676945Y-98270895D01*
X128738324Y-98732301D01*
X128888540Y-99172866D01*
X129031933Y-99441136D01*
X129310998Y-99682929D01*
X130803927Y-98190000D01*
X131296073Y-98190000D01*
X132789002Y-99682929D01*
X133068067Y-99441136D01*
X133148911Y-99276640D01*
X138317713Y-99276640D01*
X138965000Y-99923927D01*
X138979143Y-99909785D01*
X139225216Y-100155858D01*
X139211073Y-100170000D01*
X139858360Y-100817287D01*
X140016149Y-100718628D01*
X140102983Y-100503017D01*
X140146085Y-100274609D01*
X140144001Y-100062644D01*
X140165000Y-100062644D01*
X140165000Y-100277356D01*
X140206888Y-100487941D01*
X140289055Y-100686309D01*
X140408342Y-100864834D01*
X140560166Y-101016658D01*
X140738691Y-101135945D01*
X140937059Y-101218112D01*
X141147644Y-101260000D01*
X141362356Y-101260000D01*
X141572941Y-101218112D01*
X141771309Y-101135945D01*
X141949834Y-101016658D01*
X142101658Y-100864834D01*
X142220945Y-100686309D01*
X142303112Y-100487941D01*
X142345000Y-100277356D01*
X142345000Y-100062644D01*
X142455000Y-100062644D01*
X142455000Y-100277356D01*
X142496888Y-100487941D01*
X142579055Y-100686309D01*
X142698342Y-100864834D01*
X142850166Y-101016658D01*
X143028691Y-101135945D01*
X143227059Y-101218112D01*
X143437644Y-101260000D01*
X143652356Y-101260000D01*
X143862941Y-101218112D01*
X144061309Y-101135945D01*
X144239834Y-101016658D01*
X144391658Y-100864834D01*
X144510945Y-100686309D01*
X144593112Y-100487941D01*
X144635000Y-100277356D01*
X144635000Y-100062644D01*
X144745000Y-100062644D01*
X144745000Y-100277356D01*
X144786888Y-100487941D01*
X144869055Y-100686309D01*
X144988342Y-100864834D01*
X145140166Y-101016658D01*
X145318691Y-101135945D01*
X145517059Y-101218112D01*
X145727644Y-101260000D01*
X145942356Y-101260000D01*
X146152941Y-101218112D01*
X146351309Y-101135945D01*
X146529834Y-101016658D01*
X146681658Y-100864834D01*
X146800945Y-100686309D01*
X146883112Y-100487941D01*
X146925000Y-100277356D01*
X146925000Y-100062644D01*
X146883112Y-99852059D01*
X146800945Y-99653691D01*
X146681658Y-99475166D01*
X146529834Y-99323342D01*
X146351309Y-99204055D01*
X146152941Y-99121888D01*
X145959248Y-99083360D01*
X146332713Y-99083360D01*
X146431372Y-99241149D01*
X146646983Y-99327983D01*
X146875391Y-99371085D01*
X147033839Y-99369527D01*
X147033839Y-101020000D01*
X147038473Y-101067048D01*
X147052196Y-101112288D01*
X147074482Y-101153982D01*
X147104473Y-101190527D01*
X147141018Y-101220518D01*
X147182712Y-101242804D01*
X147227952Y-101256527D01*
X147275000Y-101261161D01*
X148975000Y-101261161D01*
X149022048Y-101256527D01*
X149067288Y-101242804D01*
X149108982Y-101220518D01*
X149145527Y-101190527D01*
X149175518Y-101153982D01*
X149197804Y-101112288D01*
X149211527Y-101067048D01*
X149216161Y-101020000D01*
X149216161Y-99370586D01*
X149397819Y-99368799D01*
X149625336Y-99321213D01*
X149818628Y-99241149D01*
X149917287Y-99083360D01*
X149270000Y-98436073D01*
X148627234Y-99078839D01*
X147622766Y-99078839D01*
X146980000Y-98436073D01*
X146332713Y-99083360D01*
X145959248Y-99083360D01*
X145942356Y-99080000D01*
X145727644Y-99080000D01*
X145517059Y-99121888D01*
X145318691Y-99204055D01*
X145140166Y-99323342D01*
X144988342Y-99475166D01*
X144869055Y-99653691D01*
X144786888Y-99852059D01*
X144745000Y-100062644D01*
X144635000Y-100062644D01*
X144593112Y-99852059D01*
X144510945Y-99653691D01*
X144391658Y-99475166D01*
X144239834Y-99323342D01*
X144061309Y-99204055D01*
X143862941Y-99121888D01*
X143669248Y-99083360D01*
X144042713Y-99083360D01*
X144141372Y-99241149D01*
X144356983Y-99327983D01*
X144585391Y-99371085D01*
X144817819Y-99368799D01*
X145045336Y-99321213D01*
X145238628Y-99241149D01*
X145337287Y-99083360D01*
X144690000Y-98436073D01*
X144042713Y-99083360D01*
X143669248Y-99083360D01*
X143652356Y-99080000D01*
X143437644Y-99080000D01*
X143227059Y-99121888D01*
X143028691Y-99204055D01*
X142850166Y-99323342D01*
X142698342Y-99475166D01*
X142579055Y-99653691D01*
X142496888Y-99852059D01*
X142455000Y-100062644D01*
X142345000Y-100062644D01*
X142303112Y-99852059D01*
X142220945Y-99653691D01*
X142101658Y-99475166D01*
X141949834Y-99323342D01*
X141771309Y-99204055D01*
X141572941Y-99121888D01*
X141362356Y-99080000D01*
X141147644Y-99080000D01*
X140937059Y-99121888D01*
X140738691Y-99204055D01*
X140560166Y-99323342D01*
X140408342Y-99475166D01*
X140289055Y-99653691D01*
X140206888Y-99852059D01*
X140165000Y-100062644D01*
X140144001Y-100062644D01*
X140143799Y-100042181D01*
X140096213Y-99814664D01*
X140016149Y-99621372D01*
X139858362Y-99522714D01*
X139926187Y-99454889D01*
X139804467Y-99333169D01*
X140005391Y-99371085D01*
X140237819Y-99368799D01*
X140465336Y-99321213D01*
X140658628Y-99241149D01*
X140757287Y-99083360D01*
X140110000Y-98436073D01*
X140095858Y-98450216D01*
X139849785Y-98204143D01*
X139863927Y-98190000D01*
X140356073Y-98190000D01*
X141003360Y-98837287D01*
X141161149Y-98738628D01*
X141247983Y-98523017D01*
X141291085Y-98294609D01*
X141289001Y-98082644D01*
X141310000Y-98082644D01*
X141310000Y-98297356D01*
X141351888Y-98507941D01*
X141434055Y-98706309D01*
X141553342Y-98884834D01*
X141705166Y-99036658D01*
X141883691Y-99155945D01*
X142082059Y-99238112D01*
X142292644Y-99280000D01*
X142507356Y-99280000D01*
X142717941Y-99238112D01*
X142916309Y-99155945D01*
X143094834Y-99036658D01*
X143246658Y-98884834D01*
X143365945Y-98706309D01*
X143448112Y-98507941D01*
X143490000Y-98297356D01*
X143490000Y-98085391D01*
X143508915Y-98085391D01*
X143511201Y-98317819D01*
X143558787Y-98545336D01*
X143638851Y-98738628D01*
X143796640Y-98837287D01*
X144443927Y-98190000D01*
X144936073Y-98190000D01*
X145583360Y-98837287D01*
X145741149Y-98738628D01*
X145827983Y-98523017D01*
X145835636Y-98482460D01*
X145848787Y-98545336D01*
X145928851Y-98738628D01*
X146086640Y-98837287D01*
X146733927Y-98190000D01*
X147226073Y-98190000D01*
X147873360Y-98837287D01*
X148031149Y-98738628D01*
X148117983Y-98523017D01*
X148125636Y-98482460D01*
X148138787Y-98545336D01*
X148218851Y-98738628D01*
X148376640Y-98837287D01*
X149023927Y-98190000D01*
X149516073Y-98190000D01*
X150163360Y-98837287D01*
X150321149Y-98738628D01*
X150407983Y-98523017D01*
X150451085Y-98294609D01*
X150448799Y-98062181D01*
X150401213Y-97834664D01*
X150321149Y-97641372D01*
X150163360Y-97542713D01*
X149516073Y-98190000D01*
X149023927Y-98190000D01*
X148376640Y-97542713D01*
X148218851Y-97641372D01*
X148132017Y-97856983D01*
X148124364Y-97897540D01*
X148111213Y-97834664D01*
X148031149Y-97641372D01*
X147873360Y-97542713D01*
X147226073Y-98190000D01*
X146733927Y-98190000D01*
X146086640Y-97542713D01*
X145928851Y-97641372D01*
X145842017Y-97856983D01*
X145834364Y-97897540D01*
X145821213Y-97834664D01*
X145741149Y-97641372D01*
X145583360Y-97542713D01*
X144936073Y-98190000D01*
X144443927Y-98190000D01*
X143796640Y-97542713D01*
X143638851Y-97641372D01*
X143552017Y-97856983D01*
X143508915Y-98085391D01*
X143490000Y-98085391D01*
X143490000Y-98082644D01*
X143448112Y-97872059D01*
X143365945Y-97673691D01*
X143246658Y-97495166D01*
X143094834Y-97343342D01*
X142916309Y-97224055D01*
X142717941Y-97141888D01*
X142507356Y-97100000D01*
X142292644Y-97100000D01*
X142082059Y-97141888D01*
X141883691Y-97224055D01*
X141705166Y-97343342D01*
X141553342Y-97495166D01*
X141434055Y-97673691D01*
X141351888Y-97872059D01*
X141310000Y-98082644D01*
X141289001Y-98082644D01*
X141288799Y-98062181D01*
X141241213Y-97834664D01*
X141161149Y-97641372D01*
X141003360Y-97542713D01*
X140356073Y-98190000D01*
X139863927Y-98190000D01*
X139216640Y-97542713D01*
X139058851Y-97641372D01*
X138972017Y-97856983D01*
X138928915Y-98085391D01*
X138931201Y-98317819D01*
X138978787Y-98545336D01*
X139058851Y-98738628D01*
X139216638Y-98837286D01*
X139148813Y-98905111D01*
X139270533Y-99026831D01*
X139069609Y-98988915D01*
X138837181Y-98991201D01*
X138609664Y-99038787D01*
X138416372Y-99118851D01*
X138317713Y-99276640D01*
X133148911Y-99276640D01*
X133273375Y-99023391D01*
X133393239Y-98573619D01*
X133423055Y-98109105D01*
X133361676Y-97647699D01*
X133211460Y-97207134D01*
X133068067Y-96938864D01*
X132789002Y-96697071D01*
X131296073Y-98190000D01*
X130803927Y-98190000D01*
X129310998Y-96697071D01*
X129031933Y-96938864D01*
X128826625Y-97356609D01*
X128706761Y-97806381D01*
X128676945Y-98270895D01*
X127654998Y-98270895D01*
X127654998Y-96583819D01*
X127657073Y-96518361D01*
X127662059Y-96472598D01*
X127666480Y-96450998D01*
X129557071Y-96450998D01*
X131050000Y-97943927D01*
X132542929Y-96450998D01*
X132301136Y-96171933D01*
X132160153Y-96102644D01*
X137875000Y-96102644D01*
X137875000Y-96317356D01*
X137916888Y-96527941D01*
X137999055Y-96726309D01*
X138118342Y-96904834D01*
X138270166Y-97056658D01*
X138448691Y-97175945D01*
X138647059Y-97258112D01*
X138857644Y-97300000D01*
X139072356Y-97300000D01*
X139089247Y-97296640D01*
X139462713Y-97296640D01*
X140110000Y-97943927D01*
X140757287Y-97296640D01*
X140658628Y-97138851D01*
X140443017Y-97052017D01*
X140214609Y-97008915D01*
X139982181Y-97011201D01*
X139754664Y-97058787D01*
X139561372Y-97138851D01*
X139462713Y-97296640D01*
X139089247Y-97296640D01*
X139282941Y-97258112D01*
X139481309Y-97175945D01*
X139659834Y-97056658D01*
X139811658Y-96904834D01*
X139930945Y-96726309D01*
X140013112Y-96527941D01*
X140055000Y-96317356D01*
X140055000Y-96102644D01*
X140165000Y-96102644D01*
X140165000Y-96317356D01*
X140206888Y-96527941D01*
X140289055Y-96726309D01*
X140408342Y-96904834D01*
X140560166Y-97056658D01*
X140738691Y-97175945D01*
X140937059Y-97258112D01*
X141147644Y-97300000D01*
X141362356Y-97300000D01*
X141572941Y-97258112D01*
X141771309Y-97175945D01*
X141949834Y-97056658D01*
X142101658Y-96904834D01*
X142220945Y-96726309D01*
X142303112Y-96527941D01*
X142345000Y-96317356D01*
X142345000Y-96102644D01*
X142455000Y-96102644D01*
X142455000Y-96317356D01*
X142496888Y-96527941D01*
X142579055Y-96726309D01*
X142698342Y-96904834D01*
X142850166Y-97056658D01*
X143028691Y-97175945D01*
X143227059Y-97258112D01*
X143437644Y-97300000D01*
X143652356Y-97300000D01*
X143669247Y-97296640D01*
X144042713Y-97296640D01*
X144690000Y-97943927D01*
X145337287Y-97296640D01*
X145238628Y-97138851D01*
X145023017Y-97052017D01*
X144794609Y-97008915D01*
X144562181Y-97011201D01*
X144334664Y-97058787D01*
X144141372Y-97138851D01*
X144042713Y-97296640D01*
X143669247Y-97296640D01*
X143862941Y-97258112D01*
X144061309Y-97175945D01*
X144239834Y-97056658D01*
X144391658Y-96904834D01*
X144510945Y-96726309D01*
X144593112Y-96527941D01*
X144635000Y-96317356D01*
X144635000Y-96102644D01*
X144745000Y-96102644D01*
X144745000Y-96317356D01*
X144786888Y-96527941D01*
X144869055Y-96726309D01*
X144988342Y-96904834D01*
X145140166Y-97056658D01*
X145318691Y-97175945D01*
X145517059Y-97258112D01*
X145727644Y-97300000D01*
X145942356Y-97300000D01*
X145959247Y-97296640D01*
X146332713Y-97296640D01*
X146980000Y-97943927D01*
X147627287Y-97296640D01*
X147528628Y-97138851D01*
X147313017Y-97052017D01*
X147084609Y-97008915D01*
X146852181Y-97011201D01*
X146624664Y-97058787D01*
X146431372Y-97138851D01*
X146332713Y-97296640D01*
X145959247Y-97296640D01*
X146152941Y-97258112D01*
X146351309Y-97175945D01*
X146529834Y-97056658D01*
X146681658Y-96904834D01*
X146800945Y-96726309D01*
X146883112Y-96527941D01*
X146925000Y-96317356D01*
X146925000Y-96102644D01*
X147035000Y-96102644D01*
X147035000Y-96317356D01*
X147076888Y-96527941D01*
X147159055Y-96726309D01*
X147278342Y-96904834D01*
X147430166Y-97056658D01*
X147608691Y-97175945D01*
X147807059Y-97258112D01*
X148017644Y-97300000D01*
X148232356Y-97300000D01*
X148249247Y-97296640D01*
X148622713Y-97296640D01*
X149270000Y-97943927D01*
X149917287Y-97296640D01*
X149818628Y-97138851D01*
X149603017Y-97052017D01*
X149374609Y-97008915D01*
X149142181Y-97011201D01*
X148914664Y-97058787D01*
X148721372Y-97138851D01*
X148622713Y-97296640D01*
X148249247Y-97296640D01*
X148442941Y-97258112D01*
X148641309Y-97175945D01*
X148819834Y-97056658D01*
X148971658Y-96904834D01*
X149090945Y-96726309D01*
X149173112Y-96527941D01*
X149215000Y-96317356D01*
X149215000Y-96102644D01*
X149173112Y-95892059D01*
X149090945Y-95693691D01*
X148971658Y-95515166D01*
X148819834Y-95363342D01*
X148668001Y-95261890D01*
X151460000Y-95261890D01*
X151460000Y-95378110D01*
X151482673Y-95492097D01*
X151527149Y-95599470D01*
X151541108Y-95620361D01*
X151552328Y-95642205D01*
X151556874Y-95650637D01*
X151586106Y-95702359D01*
X151588537Y-95706560D01*
X151615196Y-95751579D01*
X151636926Y-95789045D01*
X151652301Y-95818488D01*
X151662974Y-95843467D01*
X151671147Y-95869423D01*
X151677938Y-95902598D01*
X151682926Y-95948374D01*
X151685001Y-96013818D01*
X151685000Y-100252071D01*
X151683234Y-100270000D01*
X151685000Y-100287929D01*
X151685000Y-100287930D01*
X151690281Y-100341551D01*
X151711152Y-100410354D01*
X151745045Y-100473763D01*
X151790657Y-100529342D01*
X151804588Y-100540775D01*
X152531331Y-101267519D01*
X152576109Y-101315229D01*
X152604955Y-101351130D01*
X152623608Y-101379385D01*
X152636186Y-101403524D01*
X152646304Y-101428740D01*
X152656247Y-101460416D01*
X152667365Y-101502236D01*
X152680356Y-101552958D01*
X152681609Y-101557653D01*
X152697512Y-101614896D01*
X152700260Y-101624072D01*
X152707769Y-101647440D01*
X152712673Y-101672097D01*
X152757149Y-101779470D01*
X152821717Y-101876103D01*
X152903897Y-101958283D01*
X153000530Y-102022851D01*
X153107903Y-102067327D01*
X153221890Y-102090000D01*
X153338110Y-102090000D01*
X153452097Y-102067327D01*
X153559470Y-102022851D01*
X153656103Y-101958283D01*
X153738283Y-101876103D01*
X153802851Y-101779470D01*
X153847327Y-101672097D01*
X153870000Y-101558110D01*
X153870000Y-101441890D01*
X153847327Y-101327903D01*
X153802851Y-101220530D01*
X153738283Y-101123897D01*
X153656103Y-101041717D01*
X153559470Y-100977149D01*
X153452097Y-100932673D01*
X153427440Y-100927769D01*
X153404072Y-100920260D01*
X153394896Y-100917512D01*
X153337653Y-100901609D01*
X153332958Y-100900356D01*
X153282236Y-100887365D01*
X153240416Y-100876247D01*
X153208740Y-100866304D01*
X153183524Y-100856186D01*
X153159385Y-100843608D01*
X153131130Y-100824955D01*
X153095229Y-100796109D01*
X153047519Y-100751331D01*
X152415000Y-100118813D01*
X152415000Y-99929002D01*
X154547071Y-99929002D01*
X154788864Y-100208067D01*
X155206609Y-100413375D01*
X155656381Y-100533239D01*
X156120895Y-100563055D01*
X156582301Y-100501676D01*
X157022866Y-100351460D01*
X157291136Y-100208067D01*
X157532929Y-99929002D01*
X156040000Y-98436073D01*
X154547071Y-99929002D01*
X152415000Y-99929002D01*
X152415000Y-98270895D01*
X153666945Y-98270895D01*
X153728324Y-98732301D01*
X153878540Y-99172866D01*
X154021933Y-99441136D01*
X154300998Y-99682929D01*
X155793927Y-98190000D01*
X156286073Y-98190000D01*
X157779002Y-99682929D01*
X158058067Y-99441136D01*
X158263375Y-99023391D01*
X158383239Y-98573619D01*
X158413055Y-98109105D01*
X158351676Y-97647699D01*
X158201460Y-97207134D01*
X158058067Y-96938864D01*
X157779002Y-96697071D01*
X156286073Y-98190000D01*
X155793927Y-98190000D01*
X154300998Y-96697071D01*
X154021933Y-96938864D01*
X153816625Y-97356609D01*
X153696761Y-97806381D01*
X153666945Y-98270895D01*
X152415000Y-98270895D01*
X152415000Y-96450998D01*
X154547071Y-96450998D01*
X156040000Y-97943927D01*
X157532929Y-96450998D01*
X157291136Y-96171933D01*
X156873391Y-95966625D01*
X156423619Y-95846761D01*
X155959105Y-95816945D01*
X155497699Y-95878324D01*
X155057134Y-96028540D01*
X154788864Y-96171933D01*
X154547071Y-96450998D01*
X152415000Y-96450998D01*
X152415000Y-96013819D01*
X152417075Y-95948361D01*
X152422061Y-95902598D01*
X152428852Y-95869423D01*
X152437025Y-95843467D01*
X152447698Y-95818488D01*
X152463073Y-95789045D01*
X152484803Y-95751579D01*
X152511462Y-95706560D01*
X152513893Y-95702359D01*
X152543125Y-95650637D01*
X152547669Y-95642208D01*
X152558887Y-95620368D01*
X152572851Y-95599470D01*
X152617327Y-95492097D01*
X152640000Y-95378110D01*
X152640000Y-95261890D01*
X152617327Y-95147903D01*
X152572851Y-95040530D01*
X152508283Y-94943897D01*
X152426103Y-94861717D01*
X152329470Y-94797149D01*
X152222097Y-94752673D01*
X152108110Y-94730000D01*
X151991890Y-94730000D01*
X151877903Y-94752673D01*
X151770530Y-94797149D01*
X151673897Y-94861717D01*
X151591717Y-94943897D01*
X151527149Y-95040530D01*
X151482673Y-95147903D01*
X151460000Y-95261890D01*
X148668001Y-95261890D01*
X148641309Y-95244055D01*
X148442941Y-95161888D01*
X148232356Y-95120000D01*
X148017644Y-95120000D01*
X147807059Y-95161888D01*
X147608691Y-95244055D01*
X147430166Y-95363342D01*
X147278342Y-95515166D01*
X147159055Y-95693691D01*
X147076888Y-95892059D01*
X147035000Y-96102644D01*
X146925000Y-96102644D01*
X146883112Y-95892059D01*
X146800945Y-95693691D01*
X146681658Y-95515166D01*
X146529834Y-95363342D01*
X146351309Y-95244055D01*
X146152941Y-95161888D01*
X145942356Y-95120000D01*
X145727644Y-95120000D01*
X145517059Y-95161888D01*
X145318691Y-95244055D01*
X145140166Y-95363342D01*
X144988342Y-95515166D01*
X144869055Y-95693691D01*
X144786888Y-95892059D01*
X144745000Y-96102644D01*
X144635000Y-96102644D01*
X144593112Y-95892059D01*
X144510945Y-95693691D01*
X144476587Y-95642271D01*
X144456576Y-95604939D01*
X144449547Y-95592703D01*
X144380422Y-95480175D01*
X144377829Y-95476049D01*
X144311473Y-95372789D01*
X144256487Y-95282545D01*
X144219327Y-95209205D01*
X144201450Y-95155628D01*
X144198024Y-95120289D01*
X144204006Y-95088732D01*
X144228345Y-95040774D01*
X144294956Y-94961232D01*
X144611188Y-94645000D01*
X148546181Y-94645000D01*
X148611638Y-94647075D01*
X148657401Y-94652061D01*
X148690576Y-94658852D01*
X148716532Y-94667025D01*
X148741511Y-94677698D01*
X148770954Y-94693073D01*
X148808420Y-94714803D01*
X148853439Y-94741462D01*
X148857640Y-94743893D01*
X148909362Y-94773125D01*
X148917792Y-94777670D01*
X148939637Y-94788891D01*
X148960530Y-94802851D01*
X149067903Y-94847327D01*
X149181890Y-94870000D01*
X149298110Y-94870000D01*
X149412097Y-94847327D01*
X149519470Y-94802851D01*
X149616103Y-94738283D01*
X149698283Y-94656103D01*
X149762851Y-94559470D01*
X149807327Y-94452097D01*
X149830000Y-94338110D01*
X149830000Y-94221890D01*
X149807327Y-94107903D01*
X149762851Y-94000530D01*
X149698283Y-93903897D01*
X149616103Y-93821717D01*
X149519470Y-93757149D01*
X149412097Y-93712673D01*
X149298110Y-93690000D01*
X149181890Y-93690000D01*
X149067903Y-93712673D01*
X148960530Y-93757149D01*
X148939637Y-93771109D01*
X148917795Y-93782328D01*
X148909362Y-93786874D01*
X148857640Y-93816106D01*
X148853439Y-93818537D01*
X148808420Y-93845196D01*
X148770954Y-93866926D01*
X148741511Y-93882301D01*
X148716532Y-93892974D01*
X148690576Y-93901147D01*
X148657401Y-93907938D01*
X148611625Y-93912926D01*
X148546209Y-93915000D01*
X144477928Y-93915000D01*
X144459999Y-93913234D01*
X144442070Y-93915000D01*
X144442069Y-93915000D01*
X144388448Y-93920281D01*
X144319645Y-93941152D01*
X144319643Y-93941153D01*
X144256234Y-93975046D01*
X144243747Y-93985294D01*
X144200657Y-94020657D01*
X144189225Y-94034587D01*
X143771456Y-94452357D01*
X143771453Y-94452359D01*
X143634994Y-94588529D01*
X143519924Y-94702819D01*
X143421173Y-94800421D01*
X143333778Y-94886422D01*
X143252612Y-94966064D01*
X143173154Y-95043997D01*
X143172960Y-95044187D01*
X143090404Y-95125342D01*
X143090038Y-95125703D01*
X142999540Y-95215047D01*
X142999094Y-95215488D01*
X142895811Y-95317988D01*
X142895367Y-95318430D01*
X142850716Y-95362974D01*
X142850166Y-95363342D01*
X142698342Y-95515166D01*
X142579055Y-95693691D01*
X142496888Y-95892059D01*
X142455000Y-96102644D01*
X142345000Y-96102644D01*
X142303112Y-95892059D01*
X142220945Y-95693691D01*
X142101658Y-95515166D01*
X141949834Y-95363342D01*
X141771309Y-95244055D01*
X141572941Y-95161888D01*
X141362356Y-95120000D01*
X141147644Y-95120000D01*
X140937059Y-95161888D01*
X140738691Y-95244055D01*
X140560166Y-95363342D01*
X140408342Y-95515166D01*
X140289055Y-95693691D01*
X140206888Y-95892059D01*
X140165000Y-96102644D01*
X140055000Y-96102644D01*
X140013112Y-95892059D01*
X139930945Y-95693691D01*
X139811658Y-95515166D01*
X139659834Y-95363342D01*
X139481309Y-95244055D01*
X139282941Y-95161888D01*
X139072356Y-95120000D01*
X138857644Y-95120000D01*
X138647059Y-95161888D01*
X138448691Y-95244055D01*
X138270166Y-95363342D01*
X138118342Y-95515166D01*
X137999055Y-95693691D01*
X137916888Y-95892059D01*
X137875000Y-96102644D01*
X132160153Y-96102644D01*
X131883391Y-95966625D01*
X131433619Y-95846761D01*
X130969105Y-95816945D01*
X130507699Y-95878324D01*
X130067134Y-96028540D01*
X129798864Y-96171933D01*
X129557071Y-96450998D01*
X127666480Y-96450998D01*
X127668850Y-96439423D01*
X127677023Y-96413467D01*
X127687696Y-96388488D01*
X127703071Y-96359045D01*
X127724801Y-96321579D01*
X127751460Y-96276560D01*
X127753891Y-96272359D01*
X127783123Y-96220637D01*
X127787667Y-96212208D01*
X127798885Y-96190368D01*
X127812849Y-96169470D01*
X127857325Y-96062097D01*
X127879998Y-95948110D01*
X127879998Y-95831890D01*
X127857325Y-95717903D01*
X127812849Y-95610530D01*
X127748281Y-95513897D01*
X127666101Y-95431717D01*
X127569468Y-95367149D01*
X127462095Y-95322673D01*
X127348108Y-95300000D01*
X127231888Y-95300000D01*
X127117901Y-95322673D01*
X127010528Y-95367149D01*
X126913895Y-95431717D01*
X126831715Y-95513897D01*
X126767147Y-95610530D01*
X126722671Y-95717903D01*
X126699998Y-95831890D01*
X126699998Y-95948110D01*
X126722671Y-96062097D01*
X126767147Y-96169470D01*
X126781106Y-96190361D01*
X126792326Y-96212205D01*
X126796872Y-96220637D01*
X126826104Y-96272359D01*
X126828535Y-96276560D01*
X126855194Y-96321579D01*
X126876924Y-96359045D01*
X126892299Y-96388488D01*
X126902972Y-96413467D01*
X126911145Y-96439423D01*
X126917936Y-96472598D01*
X126922924Y-96518374D01*
X126924999Y-96583817D01*
X126924998Y-100138814D01*
X125028813Y-102035000D01*
X121247928Y-102035000D01*
X121229999Y-102033234D01*
X121212070Y-102035000D01*
X121212069Y-102035000D01*
X121158448Y-102040281D01*
X121089645Y-102061152D01*
X121035674Y-102090000D01*
X121026234Y-102095046D01*
X121002125Y-102114833D01*
X120970657Y-102140657D01*
X120959226Y-102154586D01*
X119344588Y-103769225D01*
X119330658Y-103780657D01*
X119319227Y-103794586D01*
X119285046Y-103836236D01*
X119251153Y-103899645D01*
X119230282Y-103968448D01*
X119223234Y-104040000D01*
X119225001Y-104057939D01*
X119225001Y-104400178D01*
X119217247Y-104560109D01*
X119197589Y-104677974D01*
X119169103Y-104769226D01*
X119132425Y-104846455D01*
X119085224Y-104921501D01*
X119081915Y-104926000D01*
X118807174Y-104926000D01*
X118661142Y-104940383D01*
X118473772Y-104997221D01*
X118301091Y-105089521D01*
X118149735Y-105213735D01*
X118025521Y-105365091D01*
X117933221Y-105537772D01*
X117876383Y-105725142D01*
X117857191Y-105920000D01*
X115690000Y-105920000D01*
X115690000Y-102220000D01*
X115857191Y-102220000D01*
X115876383Y-102414858D01*
X115933221Y-102602228D01*
X116025521Y-102774909D01*
X116149735Y-102926265D01*
X116301091Y-103050479D01*
X116473772Y-103142779D01*
X116661142Y-103199617D01*
X116807174Y-103214000D01*
X118412826Y-103214000D01*
X118558858Y-103199617D01*
X118746228Y-103142779D01*
X118918909Y-103050479D01*
X119070265Y-102926265D01*
X119194479Y-102774909D01*
X119286779Y-102602228D01*
X119343617Y-102414858D01*
X119362809Y-102220000D01*
X119343617Y-102025142D01*
X119286779Y-101837772D01*
X119194479Y-101665091D01*
X119070265Y-101513735D01*
X118948737Y-101414000D01*
X120412826Y-101414000D01*
X120558858Y-101399617D01*
X120746228Y-101342779D01*
X120918909Y-101250479D01*
X121070265Y-101126265D01*
X121194479Y-100974909D01*
X121286779Y-100802228D01*
X121343617Y-100614858D01*
X121362809Y-100420000D01*
X121343617Y-100225142D01*
X121286779Y-100037772D01*
X121279952Y-100025000D01*
X124316181Y-100025000D01*
X124381638Y-100027075D01*
X124427401Y-100032061D01*
X124460576Y-100038852D01*
X124486532Y-100047025D01*
X124511511Y-100057698D01*
X124540954Y-100073073D01*
X124578420Y-100094803D01*
X124623439Y-100121462D01*
X124627640Y-100123893D01*
X124679362Y-100153125D01*
X124687792Y-100157670D01*
X124709637Y-100168891D01*
X124730530Y-100182851D01*
X124837903Y-100227327D01*
X124951890Y-100250000D01*
X125068110Y-100250000D01*
X125182097Y-100227327D01*
X125289470Y-100182851D01*
X125386103Y-100118283D01*
X125468283Y-100036103D01*
X125532851Y-99939470D01*
X125577327Y-99832097D01*
X125600000Y-99718110D01*
X125600000Y-99601890D01*
X125577327Y-99487903D01*
X125532851Y-99380530D01*
X125468283Y-99283897D01*
X125386103Y-99201717D01*
X125289470Y-99137149D01*
X125182097Y-99092673D01*
X125068110Y-99070000D01*
X124951890Y-99070000D01*
X124837903Y-99092673D01*
X124730530Y-99137149D01*
X124709637Y-99151109D01*
X124687795Y-99162328D01*
X124679362Y-99166874D01*
X124627640Y-99196106D01*
X124623439Y-99198537D01*
X124578420Y-99225196D01*
X124540954Y-99246926D01*
X124511511Y-99262301D01*
X124486532Y-99272974D01*
X124460576Y-99281147D01*
X124427401Y-99287938D01*
X124381625Y-99292926D01*
X124316209Y-99295000D01*
X120847929Y-99295000D01*
X120830000Y-99293234D01*
X120812071Y-99295000D01*
X120812069Y-99295000D01*
X120784989Y-99297667D01*
X120699825Y-99300436D01*
X120683029Y-99301573D01*
X120545496Y-99315742D01*
X120529105Y-99318004D01*
X120411445Y-99338397D01*
X120398344Y-99341045D01*
X120294675Y-99365025D01*
X120288181Y-99366623D01*
X120193931Y-99391210D01*
X120107863Y-99412642D01*
X120039378Y-99426000D01*
X118807174Y-99426000D01*
X118661142Y-99440383D01*
X118473772Y-99497221D01*
X118301091Y-99589521D01*
X118149735Y-99713735D01*
X118025521Y-99865091D01*
X117933221Y-100037772D01*
X117876383Y-100225142D01*
X117857191Y-100420000D01*
X117876383Y-100614858D01*
X117933221Y-100802228D01*
X118025521Y-100974909D01*
X118149735Y-101126265D01*
X118271263Y-101226000D01*
X116807174Y-101226000D01*
X116661142Y-101240383D01*
X116473772Y-101297221D01*
X116301091Y-101389521D01*
X116149735Y-101513735D01*
X116025521Y-101665091D01*
X115933221Y-101837772D01*
X115876383Y-102025142D01*
X115857191Y-102220000D01*
X115690000Y-102220000D01*
X115690000Y-96720000D01*
X115857191Y-96720000D01*
X115876383Y-96914858D01*
X115933221Y-97102228D01*
X116025521Y-97274909D01*
X116149735Y-97426265D01*
X116301091Y-97550479D01*
X116473772Y-97642779D01*
X116661142Y-97699617D01*
X116807174Y-97714000D01*
X118412826Y-97714000D01*
X118558858Y-97699617D01*
X118746228Y-97642779D01*
X118918909Y-97550479D01*
X119070265Y-97426265D01*
X119194479Y-97274909D01*
X119286779Y-97102228D01*
X119343617Y-96914858D01*
X119362809Y-96720000D01*
X119343617Y-96525142D01*
X119286779Y-96337772D01*
X119194479Y-96165091D01*
X119070265Y-96013735D01*
X118918909Y-95889521D01*
X118746228Y-95797221D01*
X118558858Y-95740383D01*
X118412826Y-95726000D01*
X116807174Y-95726000D01*
X116661142Y-95740383D01*
X116473772Y-95797221D01*
X116301091Y-95889521D01*
X116149735Y-96013735D01*
X116025521Y-96165091D01*
X115933221Y-96337772D01*
X115876383Y-96525142D01*
X115857191Y-96720000D01*
X115690000Y-96720000D01*
X115690000Y-93440000D01*
X118393738Y-93440000D01*
X118301091Y-93489521D01*
G37*
G04 #@! TD.AperFunction*
D18*
X144100555Y-94799780D02*
X144017001Y-94899555D01*
X144015413Y-94901962D01*
X143963231Y-95004783D01*
X143962078Y-95008165D01*
X143943355Y-95106932D01*
X143943192Y-95110522D01*
X143952550Y-95207048D01*
X143953144Y-95209843D01*
X143985209Y-95305942D01*
X143985927Y-95307662D01*
X144035322Y-95405149D01*
X144035806Y-95406017D01*
X144097154Y-95506703D01*
X144097315Y-95506961D01*
X144165184Y-95612575D01*
X144234030Y-95724649D01*
X144294442Y-95837351D01*
X143547477Y-96614103D01*
X142959882Y-95611015D01*
X143073840Y-95497329D01*
X143177075Y-95394876D01*
X143267554Y-95305551D01*
X143350100Y-95224406D01*
X143429558Y-95146473D01*
X143429560Y-95146471D01*
X143510762Y-95066794D01*
X143510775Y-95066781D01*
X143598564Y-94980393D01*
X143598584Y-94980374D01*
X143697804Y-94882308D01*
X143697826Y-94882286D01*
X143813319Y-94767576D01*
X143813340Y-94767555D01*
X143940970Y-94640195D01*
X144100555Y-94799780D01*
G04 #@! TA.AperFunction,Conductor*
D17*
G36*
X144100555Y-94799780D02*
G01*
X144017001Y-94899555D01*
X144015413Y-94901962D01*
X143963231Y-95004783D01*
X143962078Y-95008165D01*
X143943355Y-95106932D01*
X143943192Y-95110522D01*
X143952550Y-95207048D01*
X143953144Y-95209843D01*
X143985209Y-95305942D01*
X143985927Y-95307662D01*
X144035322Y-95405149D01*
X144035806Y-95406017D01*
X144097154Y-95506703D01*
X144097315Y-95506961D01*
X144165184Y-95612575D01*
X144234030Y-95724649D01*
X144294442Y-95837351D01*
X143547477Y-96614103D01*
X142959882Y-95611015D01*
X143073840Y-95497329D01*
X143177075Y-95394876D01*
X143267554Y-95305551D01*
X143350100Y-95224406D01*
X143429558Y-95146473D01*
X143429560Y-95146471D01*
X143510762Y-95066794D01*
X143510775Y-95066781D01*
X143598564Y-94980393D01*
X143598584Y-94980374D01*
X143697804Y-94882308D01*
X143697826Y-94882286D01*
X143813319Y-94767576D01*
X143813340Y-94767555D01*
X143940970Y-94640195D01*
X144100555Y-94799780D01*
G37*
G04 #@! TD.AperFunction*
D18*
X149396678Y-94280000D02*
X149085174Y-94579559D01*
X149033467Y-94552999D01*
X148982104Y-94523970D01*
X148936164Y-94496766D01*
X148936065Y-94496708D01*
X148893140Y-94471812D01*
X148892647Y-94471541D01*
X148850250Y-94449401D01*
X148849361Y-94448979D01*
X148804911Y-94429986D01*
X148803735Y-94429551D01*
X148754653Y-94414097D01*
X148753386Y-94413769D01*
X148697092Y-94402246D01*
X148695921Y-94402063D01*
X148629835Y-94394862D01*
X148628861Y-94394793D01*
X148562700Y-94392696D01*
X148562700Y-94167304D01*
X148628862Y-94165206D01*
X148629835Y-94165137D01*
X148695921Y-94157936D01*
X148697092Y-94157753D01*
X148753386Y-94146230D01*
X148754653Y-94145902D01*
X148803735Y-94130448D01*
X148804911Y-94130013D01*
X148849361Y-94111020D01*
X148850250Y-94110598D01*
X148892647Y-94088458D01*
X148893140Y-94088187D01*
X148936065Y-94063291D01*
X148936164Y-94063233D01*
X148982104Y-94036029D01*
X149033467Y-94007000D01*
X149085174Y-93980441D01*
X149396678Y-94280000D01*
G04 #@! TA.AperFunction,Conductor*
D17*
G36*
X149396678Y-94280000D02*
G01*
X149085174Y-94579559D01*
X149033467Y-94552999D01*
X148982104Y-94523970D01*
X148936164Y-94496766D01*
X148936065Y-94496708D01*
X148893140Y-94471812D01*
X148892647Y-94471541D01*
X148850250Y-94449401D01*
X148849361Y-94448979D01*
X148804911Y-94429986D01*
X148803735Y-94429551D01*
X148754653Y-94414097D01*
X148753386Y-94413769D01*
X148697092Y-94402246D01*
X148695921Y-94402063D01*
X148629835Y-94394862D01*
X148628861Y-94394793D01*
X148562700Y-94392696D01*
X148562700Y-94167304D01*
X148628862Y-94165206D01*
X148629835Y-94165137D01*
X148695921Y-94157936D01*
X148697092Y-94157753D01*
X148753386Y-94146230D01*
X148754653Y-94145902D01*
X148803735Y-94130448D01*
X148804911Y-94130013D01*
X148849361Y-94111020D01*
X148850250Y-94110598D01*
X148892647Y-94088458D01*
X148893140Y-94088187D01*
X148936065Y-94063291D01*
X148936164Y-94063233D01*
X148982104Y-94036029D01*
X149033467Y-94007000D01*
X149085174Y-93980441D01*
X149396678Y-94280000D01*
G37*
G04 #@! TD.AperFunction*
D18*
X127589557Y-96044826D02*
X127562997Y-96096532D01*
X127533968Y-96147895D01*
X127506764Y-96193835D01*
X127506706Y-96193934D01*
X127481810Y-96236859D01*
X127481539Y-96237352D01*
X127459399Y-96279749D01*
X127458977Y-96280638D01*
X127439984Y-96325088D01*
X127439549Y-96326264D01*
X127424095Y-96375346D01*
X127423767Y-96376613D01*
X127412244Y-96432907D01*
X127412061Y-96434078D01*
X127404860Y-96500164D01*
X127404791Y-96501138D01*
X127402694Y-96567300D01*
X127177302Y-96567300D01*
X127175204Y-96501137D01*
X127175135Y-96500164D01*
X127167934Y-96434078D01*
X127167751Y-96432907D01*
X127156228Y-96376613D01*
X127155900Y-96375346D01*
X127140446Y-96326264D01*
X127140011Y-96325088D01*
X127121018Y-96280638D01*
X127120596Y-96279749D01*
X127098456Y-96237352D01*
X127098185Y-96236859D01*
X127073289Y-96193934D01*
X127073231Y-96193835D01*
X127046027Y-96147895D01*
X127016998Y-96096532D01*
X126990439Y-96044826D01*
X127289998Y-95733322D01*
X127589557Y-96044826D01*
G04 #@! TA.AperFunction,Conductor*
D17*
G36*
X127589557Y-96044826D02*
G01*
X127562997Y-96096532D01*
X127533968Y-96147895D01*
X127506764Y-96193835D01*
X127506706Y-96193934D01*
X127481810Y-96236859D01*
X127481539Y-96237352D01*
X127459399Y-96279749D01*
X127458977Y-96280638D01*
X127439984Y-96325088D01*
X127439549Y-96326264D01*
X127424095Y-96375346D01*
X127423767Y-96376613D01*
X127412244Y-96432907D01*
X127412061Y-96434078D01*
X127404860Y-96500164D01*
X127404791Y-96501138D01*
X127402694Y-96567300D01*
X127177302Y-96567300D01*
X127175204Y-96501137D01*
X127175135Y-96500164D01*
X127167934Y-96434078D01*
X127167751Y-96432907D01*
X127156228Y-96376613D01*
X127155900Y-96375346D01*
X127140446Y-96326264D01*
X127140011Y-96325088D01*
X127121018Y-96280638D01*
X127120596Y-96279749D01*
X127098456Y-96237352D01*
X127098185Y-96236859D01*
X127073289Y-96193934D01*
X127073231Y-96193835D01*
X127046027Y-96147895D01*
X127016998Y-96096532D01*
X126990439Y-96044826D01*
X127289998Y-95733322D01*
X127589557Y-96044826D01*
G37*
G04 #@! TD.AperFunction*
D18*
X119711047Y-104583217D02*
X119711214Y-104584730D01*
X119736040Y-104729925D01*
X119736470Y-104731681D01*
X119775332Y-104852270D01*
X119776037Y-104854006D01*
X119826879Y-104956774D01*
X119827674Y-104958155D01*
X119888440Y-105049890D01*
X119889036Y-105050716D01*
X119957668Y-105138204D01*
X119957872Y-105138458D01*
X120032233Y-105228390D01*
X120110073Y-105327297D01*
X120189443Y-105442018D01*
X120264088Y-105571893D01*
X119619435Y-106278554D01*
X118938513Y-105606780D01*
X119007394Y-105471078D01*
X119081819Y-105351367D01*
X119155793Y-105248320D01*
X119227248Y-105154898D01*
X119227391Y-105154707D01*
X119293968Y-105064189D01*
X119294487Y-105063426D01*
X119353884Y-104968988D01*
X119354606Y-104967674D01*
X119404627Y-104862351D01*
X119405278Y-104860687D01*
X119443727Y-104737517D01*
X119444131Y-104735822D01*
X119468812Y-104587842D01*
X119468970Y-104586368D01*
X119477099Y-104418700D01*
X119702912Y-104418700D01*
X119711047Y-104583217D01*
G04 #@! TA.AperFunction,Conductor*
D17*
G36*
X119711047Y-104583217D02*
G01*
X119711214Y-104584730D01*
X119736040Y-104729925D01*
X119736470Y-104731681D01*
X119775332Y-104852270D01*
X119776037Y-104854006D01*
X119826879Y-104956774D01*
X119827674Y-104958155D01*
X119888440Y-105049890D01*
X119889036Y-105050716D01*
X119957668Y-105138204D01*
X119957872Y-105138458D01*
X120032233Y-105228390D01*
X120110073Y-105327297D01*
X120189443Y-105442018D01*
X120264088Y-105571893D01*
X119619435Y-106278554D01*
X118938513Y-105606780D01*
X119007394Y-105471078D01*
X119081819Y-105351367D01*
X119155793Y-105248320D01*
X119227248Y-105154898D01*
X119227391Y-105154707D01*
X119293968Y-105064189D01*
X119294487Y-105063426D01*
X119353884Y-104968988D01*
X119354606Y-104967674D01*
X119404627Y-104862351D01*
X119405278Y-104860687D01*
X119443727Y-104737517D01*
X119444131Y-104735822D01*
X119468812Y-104587842D01*
X119468970Y-104586368D01*
X119477099Y-104418700D01*
X119702912Y-104418700D01*
X119711047Y-104583217D01*
G37*
G04 #@! TD.AperFunction*
D18*
X125166678Y-99660000D02*
X124855174Y-99959559D01*
X124803467Y-99932999D01*
X124752104Y-99903970D01*
X124706164Y-99876766D01*
X124706065Y-99876708D01*
X124663140Y-99851812D01*
X124662647Y-99851541D01*
X124620250Y-99829401D01*
X124619361Y-99828979D01*
X124574911Y-99809986D01*
X124573735Y-99809551D01*
X124524653Y-99794097D01*
X124523386Y-99793769D01*
X124467092Y-99782246D01*
X124465921Y-99782063D01*
X124399835Y-99774862D01*
X124398861Y-99774793D01*
X124332700Y-99772696D01*
X124332700Y-99547304D01*
X124398862Y-99545206D01*
X124399835Y-99545137D01*
X124465921Y-99537936D01*
X124467092Y-99537753D01*
X124523386Y-99526230D01*
X124524653Y-99525902D01*
X124573735Y-99510448D01*
X124574911Y-99510013D01*
X124619361Y-99491020D01*
X124620250Y-99490598D01*
X124662647Y-99468458D01*
X124663140Y-99468187D01*
X124706065Y-99443291D01*
X124706164Y-99443233D01*
X124752104Y-99416029D01*
X124803467Y-99387000D01*
X124855174Y-99360441D01*
X125166678Y-99660000D01*
G04 #@! TA.AperFunction,Conductor*
D17*
G36*
X125166678Y-99660000D02*
G01*
X124855174Y-99959559D01*
X124803467Y-99932999D01*
X124752104Y-99903970D01*
X124706164Y-99876766D01*
X124706065Y-99876708D01*
X124663140Y-99851812D01*
X124662647Y-99851541D01*
X124620250Y-99829401D01*
X124619361Y-99828979D01*
X124574911Y-99809986D01*
X124573735Y-99809551D01*
X124524653Y-99794097D01*
X124523386Y-99793769D01*
X124467092Y-99782246D01*
X124465921Y-99782063D01*
X124399835Y-99774862D01*
X124398861Y-99774793D01*
X124332700Y-99772696D01*
X124332700Y-99547304D01*
X124398862Y-99545206D01*
X124399835Y-99545137D01*
X124465921Y-99537936D01*
X124467092Y-99537753D01*
X124523386Y-99526230D01*
X124524653Y-99525902D01*
X124573735Y-99510448D01*
X124574911Y-99510013D01*
X124619361Y-99491020D01*
X124620250Y-99490598D01*
X124662647Y-99468458D01*
X124663140Y-99468187D01*
X124706065Y-99443291D01*
X124706164Y-99443233D01*
X124752104Y-99416029D01*
X124803467Y-99387000D01*
X124855174Y-99360441D01*
X125166678Y-99660000D01*
G37*
G04 #@! TD.AperFunction*
D18*
X120858213Y-99773729D02*
X120694132Y-99793356D01*
X120691700Y-99793892D01*
X120690143Y-99794517D01*
X120567768Y-99853268D01*
X120565641Y-99854560D01*
X120563797Y-99856253D01*
X120483063Y-99946568D01*
X120481593Y-99948578D01*
X120480887Y-99949963D01*
X120430538Y-100065621D01*
X120429810Y-100067824D01*
X120398591Y-100202602D01*
X120398419Y-100203485D01*
X120375092Y-100351040D01*
X120348471Y-100504772D01*
X120307516Y-100658041D01*
X120241276Y-100804823D01*
X120143851Y-100932713D01*
X119272239Y-100540694D01*
X119698737Y-99683633D01*
X119833525Y-99692925D01*
X119834644Y-99692953D01*
X119956592Y-99690595D01*
X119957763Y-99690518D01*
X120064292Y-99678561D01*
X120065306Y-99678405D01*
X120162297Y-99659487D01*
X120162935Y-99659346D01*
X120256270Y-99636104D01*
X120256407Y-99636069D01*
X120351818Y-99611179D01*
X120454950Y-99587323D01*
X120571825Y-99567066D01*
X120708484Y-99552987D01*
X120858213Y-99548119D01*
X120858213Y-99773729D01*
G04 #@! TA.AperFunction,Conductor*
D17*
G36*
X120858213Y-99773729D02*
G01*
X120694132Y-99793356D01*
X120691700Y-99793892D01*
X120690143Y-99794517D01*
X120567768Y-99853268D01*
X120565641Y-99854560D01*
X120563797Y-99856253D01*
X120483063Y-99946568D01*
X120481593Y-99948578D01*
X120480887Y-99949963D01*
X120430538Y-100065621D01*
X120429810Y-100067824D01*
X120398591Y-100202602D01*
X120398419Y-100203485D01*
X120375092Y-100351040D01*
X120348471Y-100504772D01*
X120307516Y-100658041D01*
X120241276Y-100804823D01*
X120143851Y-100932713D01*
X119272239Y-100540694D01*
X119698737Y-99683633D01*
X119833525Y-99692925D01*
X119834644Y-99692953D01*
X119956592Y-99690595D01*
X119957763Y-99690518D01*
X120064292Y-99678561D01*
X120065306Y-99678405D01*
X120162297Y-99659487D01*
X120162935Y-99659346D01*
X120256270Y-99636104D01*
X120256407Y-99636069D01*
X120351818Y-99611179D01*
X120454950Y-99587323D01*
X120571825Y-99567066D01*
X120708484Y-99552987D01*
X120858213Y-99548119D01*
X120858213Y-99773729D01*
G37*
G04 #@! TD.AperFunction*
D18*
X152929031Y-100986688D02*
X152929767Y-100987328D01*
X152981589Y-101028967D01*
X152982547Y-101029666D01*
X153030501Y-101061323D01*
X153031629Y-101061987D01*
X153077263Y-101085766D01*
X153078403Y-101086290D01*
X153123264Y-101104291D01*
X153124190Y-101104621D01*
X153169824Y-101118945D01*
X153170364Y-101119102D01*
X153218321Y-101131851D01*
X153218433Y-101131880D01*
X153270113Y-101145116D01*
X153327027Y-101160928D01*
X153382340Y-101178701D01*
X153390787Y-101610787D01*
X152958701Y-101602340D01*
X152940928Y-101547027D01*
X152925116Y-101490113D01*
X152911880Y-101438433D01*
X152911851Y-101438321D01*
X152899102Y-101390364D01*
X152898945Y-101389824D01*
X152884621Y-101344190D01*
X152884291Y-101343264D01*
X152866290Y-101298403D01*
X152865766Y-101297263D01*
X152841987Y-101251629D01*
X152841323Y-101250501D01*
X152809666Y-101202547D01*
X152808967Y-101201589D01*
X152767328Y-101149767D01*
X152766688Y-101149031D01*
X152721389Y-101100765D01*
X152880765Y-100941389D01*
X152929031Y-100986688D01*
G04 #@! TA.AperFunction,Conductor*
D17*
G36*
X152929031Y-100986688D02*
G01*
X152929767Y-100987328D01*
X152981589Y-101028967D01*
X152982547Y-101029666D01*
X153030501Y-101061323D01*
X153031629Y-101061987D01*
X153077263Y-101085766D01*
X153078403Y-101086290D01*
X153123264Y-101104291D01*
X153124190Y-101104621D01*
X153169824Y-101118945D01*
X153170364Y-101119102D01*
X153218321Y-101131851D01*
X153218433Y-101131880D01*
X153270113Y-101145116D01*
X153327027Y-101160928D01*
X153382340Y-101178701D01*
X153390787Y-101610787D01*
X152958701Y-101602340D01*
X152940928Y-101547027D01*
X152925116Y-101490113D01*
X152911880Y-101438433D01*
X152911851Y-101438321D01*
X152899102Y-101390364D01*
X152898945Y-101389824D01*
X152884621Y-101344190D01*
X152884291Y-101343264D01*
X152866290Y-101298403D01*
X152865766Y-101297263D01*
X152841987Y-101251629D01*
X152841323Y-101250501D01*
X152809666Y-101202547D01*
X152808967Y-101201589D01*
X152767328Y-101149767D01*
X152766688Y-101149031D01*
X152721389Y-101100765D01*
X152880765Y-100941389D01*
X152929031Y-100986688D01*
G37*
G04 #@! TD.AperFunction*
D18*
X152349559Y-95474826D02*
X152322999Y-95526532D01*
X152293970Y-95577895D01*
X152266766Y-95623835D01*
X152266708Y-95623934D01*
X152241812Y-95666859D01*
X152241541Y-95667352D01*
X152219401Y-95709749D01*
X152218979Y-95710638D01*
X152199986Y-95755088D01*
X152199551Y-95756264D01*
X152184097Y-95805346D01*
X152183769Y-95806613D01*
X152172246Y-95862907D01*
X152172063Y-95864078D01*
X152164862Y-95930164D01*
X152164793Y-95931138D01*
X152162696Y-95997300D01*
X151937304Y-95997300D01*
X151935206Y-95931137D01*
X151935137Y-95930164D01*
X151927936Y-95864078D01*
X151927753Y-95862907D01*
X151916230Y-95806613D01*
X151915902Y-95805346D01*
X151900448Y-95756264D01*
X151900013Y-95755088D01*
X151881020Y-95710638D01*
X151880598Y-95709749D01*
X151858458Y-95667352D01*
X151858187Y-95666859D01*
X151833291Y-95623934D01*
X151833233Y-95623835D01*
X151806029Y-95577895D01*
X151777000Y-95526532D01*
X151750441Y-95474826D01*
X152050000Y-95163322D01*
X152349559Y-95474826D01*
G04 #@! TA.AperFunction,Conductor*
D17*
G36*
X152349559Y-95474826D02*
G01*
X152322999Y-95526532D01*
X152293970Y-95577895D01*
X152266766Y-95623835D01*
X152266708Y-95623934D01*
X152241812Y-95666859D01*
X152241541Y-95667352D01*
X152219401Y-95709749D01*
X152218979Y-95710638D01*
X152199986Y-95755088D01*
X152199551Y-95756264D01*
X152184097Y-95805346D01*
X152183769Y-95806613D01*
X152172246Y-95862907D01*
X152172063Y-95864078D01*
X152164862Y-95930164D01*
X152164793Y-95931138D01*
X152162696Y-95997300D01*
X151937304Y-95997300D01*
X151935206Y-95931137D01*
X151935137Y-95930164D01*
X151927936Y-95864078D01*
X151927753Y-95862907D01*
X151916230Y-95806613D01*
X151915902Y-95805346D01*
X151900448Y-95756264D01*
X151900013Y-95755088D01*
X151881020Y-95710638D01*
X151880598Y-95709749D01*
X151858458Y-95667352D01*
X151858187Y-95666859D01*
X151833291Y-95623934D01*
X151833233Y-95623835D01*
X151806029Y-95577895D01*
X151777000Y-95526532D01*
X151750441Y-95474826D01*
X152050000Y-95163322D01*
X152349559Y-95474826D01*
G37*
G04 #@! TD.AperFunction*
M02*
